<?xml version="1.0" encoding="UTF-8"?>
<svg xmlns="http://www.w3.org/2000/svg" width="159" height="69" viewBox="0 0 159 69" fill="none">
  <rect width="159" height="69" fill="white"></rect>
  <path fill-rule="evenodd" clip-rule="evenodd" d="M116.806 24.0059L47.4713 24.0348H43.3291V26.2574L47.0239 26.2718L47.0527 26.2863L132.306 26.2718L133.259 24.0059C131.7 24.0059 117.816 24.0636 117.542 23.9771C117.253 24.0059 117.138 24.0636 116.806 24.0059ZM114.756 33.8346C114.901 33.8346 115.059 33.8057 115.189 33.748C116.272 33.4304 117.643 33.0408 118.754 33.0408C119.259 33.0263 119.764 33.214 120.14 33.5459C121.02 34.4263 120.544 36.0139 120.313 37.2695L118.148 48.5992C118.004 49.3497 117.83 50.1002 117.715 50.8507C117.542 51.8898 117.397 52.2506 117.397 53.4918C117.397 55.7289 118.725 57.6051 120.933 57.6051C122.969 57.6051 124.556 56.8546 126.201 55.8588C126.966 55.3681 127.717 54.8485 128.424 54.2856C128.669 54.0836 129.896 53.0733 129.954 52.9723L129.997 51.1104C129.795 51.1682 129.059 51.9331 128.77 52.1496C128.352 52.4816 127.962 52.8424 127.486 53.1888C126.735 53.7228 123.95 55.6279 123.07 54.0114C122.608 53.1599 122.766 52.0053 122.969 51.096C123.257 49.8404 123.661 47.7188 123.907 46.492C124.311 44.4426 124.729 42.4509 125.148 40.4014L125.768 37.385C126.057 36.1582 126.447 34.051 126.707 32.781C126.808 32.2614 126.937 31.7274 127.024 31.2511C127.111 30.7748 127.616 28.5089 127.616 28.1481C127.486 28.1914 127.356 28.2347 127.212 28.278L115.334 32.0593C114.828 32.2037 114.872 32.1171 114.857 32.7377C114.843 33.0841 114.756 33.517 114.756 33.8346Z" fill="#EB6303"></path>
  <path fill-rule="evenodd" clip-rule="evenodd" d="M86.0645 48.2237C86.0645 50.1721 86.4397 52.1783 87.7098 53.3906L87.8252 53.4916C90.12 55.6132 93.5406 53.6071 95.4745 52.0339C96.8024 50.9226 98.0291 49.6959 99.126 48.3536C99.3569 48.065 99.559 47.8196 99.7755 47.531C100.54 46.5062 100.872 45.9578 101.58 44.9042C102.013 44.2547 102.2 43.8362 102.532 43.2733L102.691 43.0568L102.33 44.9619C102.186 45.7124 101.276 50.1721 101.276 50.7494C101.276 54.372 103.73 54.9926 106.674 53.8236L107.612 53.3906C107.901 53.2174 108.204 53.0875 108.493 52.8999C109.315 52.3803 110.095 51.7742 110.802 51.1103C111.062 50.8505 112.289 49.6093 112.418 49.3062L112.707 47.5454C111.293 48.8732 110.383 50.1288 108.608 51.2401C107.843 51.7164 106.097 52.6978 105.606 51.3267C105.13 50.0278 106.27 46.2897 106.559 44.5867C106.804 43.1579 107.381 40.7765 107.685 39.2755L108.247 36.6199C108.348 36.2013 108.435 35.7539 108.522 35.3209C108.594 34.9601 109.344 31.453 109.359 31.2942C109.041 31.2942 108.522 31.2076 108.204 31.1932C106.746 31.121 105.707 31.0344 104.149 31.0344C100.006 31.0344 96.9322 31.8571 94.0024 34.0653L91.6066 36.1003C91.419 36.2879 91.2602 36.4322 91.087 36.6343C90.7551 37.0384 90.3798 37.4137 90.0623 37.8322C89.5716 38.4528 89.1097 39.1167 88.6912 39.795C87.8252 41.2239 87.1469 42.7682 86.6851 44.3846C86.2954 45.6403 86.0933 46.9248 86.0645 48.2237ZM92.2849 51.067C91.7221 51.0525 91.2025 50.7494 90.9283 50.2587C89.8747 48.5124 90.8705 44.5723 91.3901 42.696C91.8087 41.2672 92.3427 39.8961 93.0066 38.5683C93.4973 37.6013 94.522 35.8116 95.2292 35.1044C95.4601 34.8591 95.7055 34.6282 95.9797 34.4405C97.8415 33.1705 100.237 33.3437 102.344 33.7622C102.792 33.8488 104.221 34.1952 104.553 34.3539C104.524 34.657 103.831 37.9621 103.788 38.0776C103.701 38.2941 103.586 38.4817 103.499 38.6837C102.922 40.1126 100.988 43.2156 100.093 44.3991L98.1013 46.8959C97.5529 47.5598 96.9755 48.1804 96.3549 48.7866C95.6189 49.5082 96.023 49.3206 94.8972 50.0711C94.3488 50.4464 93.223 51.067 92.2849 51.067Z" fill="#202060"></path>
  <path fill-rule="evenodd" clip-rule="evenodd" d="M47.0531 26.3006L47.0242 26.2862L43.3295 26.2717V24.0491H47.4717C47.4717 23.7893 48.3232 19.2719 48.3665 19.0265C49.0159 16.0534 50.9932 13.3401 54.1684 12.9215C55.0632 12.8205 55.9725 12.9071 56.8384 13.1813C57.7766 13.4844 58.859 14.105 58.9023 14.1194C59.0466 14.0184 61.0816 12.0267 61.3703 11.738C62.3517 10.7566 62.3806 10.9875 61.3559 10.8288C58.7724 10.4535 55.424 10.7566 52.9994 11.738C51.8736 12.171 50.7912 12.7483 49.7953 13.4267L48.785 14.206C48.6551 14.3215 48.5541 14.3792 48.4386 14.4947C47.3562 15.4761 46.4181 16.6018 45.6676 17.8286C45.5088 18.0884 45.35 18.3338 45.2202 18.5936C44.3831 20.21 44.3398 20.4554 43.8058 22.0285C43.7047 22.3172 43.6037 22.678 43.5315 22.9811C43.4882 23.1831 43.4594 23.2986 43.4161 23.5007C43.3583 23.6738 43.3295 23.847 43.315 24.0347H37.5708V26.3006H42.8965L42.4635 28.8119C42.3192 29.6201 42.1749 30.5438 42.0017 31.3665C41.3522 34.6138 40.8471 38.2653 40.1976 41.4838C39.8656 43.1435 39.6058 44.8754 39.2883 46.5785C38.2059 52.3515 37.7873 59.2215 30.0226 57.9514C29.171 57.8071 28.4205 57.5617 27.5979 57.3597L25 60.4627C28.103 60.5349 29.7339 61.1843 33.0101 60.0153C35.1895 59.2215 37.0946 57.8359 38.5234 56.003C38.9852 55.4113 39.2162 55.0793 39.6491 54.4443C40.5007 53.1742 41.4388 51.0815 41.9728 49.6526C44.1088 43.894 44.9748 36.8653 46.1871 30.818C46.3026 30.284 46.9809 26.4449 47.0531 26.3006Z" fill="#202060"></path>
  <path fill-rule="evenodd" clip-rule="evenodd" d="M50.9065 37.6302C50.9065 38.2941 51.022 38.9436 51.2384 39.5642C51.3972 40.0982 51.657 40.5745 52.0178 40.993C52.4797 41.5126 53.1003 42.292 53.5765 42.7538C53.894 43.0713 54.76 44.1249 55.1353 44.5146C56.4342 45.9146 57.6032 47.0403 57.6032 49.1186C57.6032 50.7784 56.0445 52.0196 54.3848 52.0196H53.692C51.9456 52.0196 49.4488 50.7928 48.3663 50.0712L45.5664 53.0299C45.754 53.0443 46.0283 53.1886 46.2447 53.2464C47.5148 53.6649 49.3766 54.1989 50.69 54.1845C51.0508 54.1845 51.2096 54.2422 51.5848 54.2422C53.5621 54.2422 55.5249 53.7515 57.2569 52.799C57.4878 52.6835 57.7043 52.5392 57.9063 52.3948C60.865 50.3021 61.9619 46.7228 59.7248 43.7641C59.1764 43.0425 58.2238 41.9745 57.6321 41.224L55.5682 38.6982C54.7744 37.8034 54.1538 36.7787 54.1538 35.4653C54.1538 33.4736 56.16 32.3623 57.9496 32.3623C59.3352 32.3623 60.6774 32.6943 61.3846 33.82C61.9908 34.7726 61.6444 35.4653 61.6444 36.1004H63.0155L64.0691 31.5108L63.2031 31.2077C62.8712 31.1067 62.6258 31.0489 62.2794 30.9768C58.628 30.1108 53.9951 31.3665 51.8302 34.6282C51.2529 35.5086 50.9209 36.5478 50.9065 37.6302Z" fill="#202060"></path>
  <path fill-rule="evenodd" clip-rule="evenodd" d="M69.9868 37.5723C69.9868 38.5538 70.0878 38.8424 70.362 39.6795C70.4631 39.9393 70.5641 40.1991 70.7084 40.4444C70.9538 40.9351 72.296 42.3207 72.7434 42.8403C72.8445 42.9557 72.8589 43.0134 72.9743 43.1289C73.0754 43.2299 73.162 43.331 73.2486 43.432L75.0526 45.4814C75.1537 45.5825 75.2403 45.6546 75.3413 45.7701C76.6402 47.3144 77.3907 49.6236 75.7165 51.1679C74.2011 52.5679 71.5311 51.9761 69.8858 51.3267C69.2363 51.0524 68.5868 50.7493 67.9806 50.3885C67.8075 50.2875 67.5621 50.0854 67.3456 50.071L64.6611 52.9864C65.758 53.5637 68.7023 54.1988 69.9868 54.1988C71.8775 54.1988 72.7146 54.2132 74.5475 53.5926C78.1124 52.4091 81.0855 48.9453 79.6278 45.2794C79.4113 44.7454 79.1515 44.2402 78.8196 43.7784C78.3577 43.1722 77.2753 41.9166 76.7413 41.2671C76.0485 40.4011 75.3557 39.6073 74.6774 38.7414C74.2156 38.1496 74.0857 38.1063 73.7393 37.4136C73.2341 36.3889 73.0176 35.1765 73.5805 34.1229C73.7681 33.7765 74.0279 33.4879 74.3454 33.257C76.2506 31.6838 80.8401 32.0735 80.8401 35.1621C80.8257 35.4652 80.7824 35.7683 80.6814 36.0569H82.1102L83.1061 31.4673C82.6875 31.3663 82.1679 31.1498 81.4319 30.9766C79.5556 30.5292 77.0299 30.6591 75.298 31.3374C74.7929 31.5395 74.4465 31.6838 73.9846 31.9147C73.162 32.3333 72.4259 32.8817 71.7909 33.5456C70.7806 34.5415 70.0012 35.9992 69.9868 37.5723Z" fill="#202060"></path>
  <path fill-rule="evenodd" clip-rule="evenodd" d="M28.5938 61.0832H27.1217C26.3712 61.0832 25.8083 60.9822 25.0723 60.9822V61.2997H125.033C125.076 61.1265 125.61 59.9719 125.754 59.6977C125.87 59.5245 125.942 59.3369 125.985 59.1348H37.5709C34.8143 59.1348 36.5318 59.0915 33.8329 60.0874C32.3463 60.6502 30.2969 61.0832 28.5938 61.0832Z" fill="#007534"></path>
  <path fill-rule="evenodd" clip-rule="evenodd" d="M120.904 21.4512C120.976 21.7255 121.078 21.8987 121.121 22.1296C120.818 22.2162 120.212 23.1687 117.888 23.5295C117.657 23.5728 117.412 23.6017 117.166 23.6017C116.748 23.6017 116.805 23.6017 116.805 24.0058C117.137 24.078 117.267 24.0058 117.541 24.0058C118.624 23.8182 119.129 23.8182 120.226 23.2409C120.587 23.0533 120.919 22.8223 121.236 22.5626C121.568 22.2739 121.915 22.4182 122.694 22.2739C124.585 21.9419 125.869 20.8162 126.778 19.4595C128.626 16.674 129.145 12.6329 129.145 8H129.044C128.972 8.83709 127.298 11.3195 126.605 12.0989C126.49 12.2288 126.446 12.3154 126.317 12.4453L123.776 15.1153C123.3 15.6349 122.636 16.3565 122.232 16.8905C121.64 17.6554 121.078 18.507 120.875 19.4884C120.717 20.1379 120.731 20.8162 120.904 21.4512Z" fill="#007433"></path>
  <path fill-rule="evenodd" clip-rule="evenodd" d="M120.53 19.936C120.472 19.835 120.414 19.734 120.342 19.6329C119.692 18.7381 118.437 18.536 117.542 19.1855C117.426 19.2577 117.325 19.3587 117.239 19.4597C116.878 19.8494 116.69 20.2391 116.69 20.9752C116.69 21.5813 116.95 21.9855 117.311 22.3607C118.09 23.1401 119.36 23.1401 120.14 22.3463C120.169 22.3174 120.183 22.303 120.212 22.2741C120.486 21.9566 120.659 21.5669 120.732 21.1484C120.775 20.7298 120.703 20.3113 120.53 19.936Z" fill="#803D10"></path>
</svg>
