<?xml version="1.0" encoding="UTF-8"?>
<svg xmlns="http://www.w3.org/2000/svg" width="100" height="100" viewBox="0 0 100 100" fill="none">
  <path d="M85.0001 81.0572V84.9548H55.9189V44.7286H85.0001V76.2215" stroke="#A4119A" stroke-width="2.5" stroke-miterlimit="10" stroke-linecap="round" stroke-linejoin="round"></path>
  <path d="M55.9189 57.6081V84.9548H15V69.3185L25.6462 67.3784V63.4154L55.9189 57.6081Z" stroke="#A4119A" stroke-width="2.5" stroke-miterlimit="10" stroke-linecap="round" stroke-linejoin="round"></path>
  <path d="M27.9751 38.6122H29.6602L30.1969 46.6081L30.6397 53.1831L31.2551 62.3391" stroke="#A4119A" stroke-width="2.5" stroke-miterlimit="10" stroke-linecap="round" stroke-linejoin="round"></path>
  <path d="M19.6252 68.4756L20.653 53.1833L21.0941 46.6083L21.6309 38.6125H22.8638" stroke="#A4119A" stroke-width="2.5" stroke-miterlimit="10" stroke-linecap="round" stroke-linejoin="round"></path>
  <path d="M39.0366 60.8464L39.9096 47.8505L40.3285 41.6067L40.827 34.1876H48.8563L49.3549 41.6067L49.7738 47.8505L50.1563 53.5438" stroke="#A4119A" stroke-width="2.5" stroke-miterlimit="10" stroke-linecap="round" stroke-linejoin="round"></path>
  <path d="M74.4789 84.9548H66.4402V75.3765H74.4789V84.9548Z" stroke="#A4119A" stroke-width="2.5" stroke-miterlimit="10" stroke-linecap="round" stroke-linejoin="round"></path>
  <path d="M79.1933 54.6049H61.7256V50.6229H79.1933V54.6049ZM68.3428 62.7839H61.7257V58.802H68.3428V62.7839ZM79.1933 62.7839H72.5763V58.802H79.1933V62.7839ZM68.3428 70.9629H61.7257V66.9809H68.3428V70.9629ZM79.1933 70.9629H72.5763V66.9809H79.1933V70.9629Z" stroke="#A4119A" stroke-width="2.5" stroke-miterlimit="10" stroke-linecap="round" stroke-linejoin="round"></path>
  <path d="M84.9999 44.7288H74.4788L76.8906 37.0961H84.9999V44.7288Z" stroke="#A4119A" stroke-width="2.5" stroke-miterlimit="10" stroke-linecap="round" stroke-linejoin="round"></path>
  <path d="M57.5324 18.1855C57.5331 18.6039 57.4511 19.0184 57.2909 19.4049C57.1307 19.7915 56.8955 20.1425 56.599 20.4378C56.3038 20.7343 55.9527 20.9694 55.5662 21.1296C55.1796 21.2898 54.7652 21.3719 54.3467 21.3711H51.1787C51.1257 22.1355 50.7975 22.8547 50.2548 23.3955C49.9594 23.6918 49.6084 23.9268 49.2219 24.0869C48.8354 24.2471 48.421 24.3293 48.0027 24.3289H47.9197C47.777 24.3288 47.6357 24.3568 47.5039 24.4114C47.3721 24.466 47.2523 24.546 47.1514 24.6469C47.0505 24.7478 46.9705 24.8676 46.916 24.9994C46.8614 25.1312 46.8334 25.2725 46.8335 25.4152V27.3935C46.8335 28.4925 45.9415 29.3845 44.8425 29.3845C44.581 29.385 44.3219 29.3337 44.0803 29.2337C43.8386 29.1336 43.6192 28.9868 43.4345 28.8016C43.2494 28.6168 43.1027 28.3973 43.0026 28.1557C42.9026 27.914 42.8512 27.655 42.8515 27.3935V25.4152C42.8515 24.8147 42.3642 24.3289 41.7636 24.3289C40.9135 24.3286 40.0959 24.002 39.4796 23.4164C38.8855 22.8492 38.508 22.064 38.4969 21.1848C38.491 20.7595 38.5705 20.3373 38.7309 19.9433C38.8912 19.5493 39.129 19.1915 39.4303 18.8911C39.7257 18.5949 40.0767 18.3599 40.4632 18.1997C40.8497 18.0395 41.264 17.9573 41.6824 17.9578H44.8521C44.9062 17.1693 45.2503 16.4589 45.7759 15.9334C46.0713 15.6371 46.4224 15.4021 46.8089 15.2419C47.1954 15.0818 47.6098 14.9995 48.0282 15H54.3467C56.1067 15 57.5324 16.4272 57.5324 18.1855Z" stroke="#A4119A" stroke-width="2.5" stroke-miterlimit="10" stroke-linecap="round" stroke-linejoin="round"></path>
  <path d="M31.9919 25.9464C31.9924 26.3647 31.9102 26.7791 31.75 27.1656C31.5898 27.5521 31.3548 27.9031 31.0586 28.1985C30.7632 28.4948 30.4121 28.7298 30.0256 28.8899C29.6391 29.0501 29.2247 29.1323 28.8063 29.1319H28.7235C28.5808 29.1318 28.4395 29.1598 28.3077 29.2144C28.1759 29.2689 28.0561 29.349 27.9552 29.4498C27.8543 29.5507 27.7743 29.6705 27.7198 29.8024C27.6652 29.9342 27.6372 30.0755 27.6373 30.2182V32.1964C27.6373 33.2955 26.7453 34.1875 25.6463 34.1875C25.3848 34.1878 25.1258 34.1365 24.8841 34.0364C24.6425 33.9364 24.423 33.7895 24.2383 33.6044C24.0532 33.4196 23.9064 33.2001 23.8064 32.9585C23.7064 32.7169 23.655 32.4579 23.6553 32.1964V30.2182C23.6554 30.0755 23.6274 29.9342 23.5728 29.8024C23.5183 29.6705 23.4382 29.5507 23.3374 29.4498C23.2365 29.3489 23.1167 29.2689 22.9848 29.2144C22.853 29.1598 22.7117 29.1318 22.569 29.1319C21.7188 29.1319 20.901 28.8052 20.2849 28.2193C19.6893 27.6521 19.3118 26.8669 19.3005 25.9878V25.9319C17.5517 25.7806 16.1787 24.3106 16.1787 22.5219C16.1787 20.6312 17.7125 19.0972 19.6032 19.0972C21.4938 19.0972 23.0277 20.6312 23.0277 22.5219C23.0277 22.6014 23.0246 22.681 23.0181 22.7607H28.8063C30.5649 22.7607 31.9919 24.1862 31.9919 25.9464Z" stroke="#A4119A" stroke-width="2.5" stroke-miterlimit="10" stroke-linecap="round" stroke-linejoin="round"></path>
  <path d="M30.6396 53.1833H20.6528L21.094 46.6083H30.1968L30.6396 53.1833Z" stroke="#A4119A" stroke-width="2.5" stroke-miterlimit="10" stroke-linecap="round" stroke-linejoin="round"></path>
  <path d="M49.7739 47.8506H39.9097L40.3285 41.6069H49.355L49.7739 47.8506Z" stroke="#A4119A" stroke-width="2.5" stroke-miterlimit="10" stroke-linecap="round" stroke-linejoin="round"></path>
  <path d="M35.6579 70.3086H31.9919V66.6428H35.6579V70.3086ZM43.1974 70.3086H39.5317V66.6428H43.1974V70.3086ZM50.737 70.3086H47.0711V66.6428H50.737V70.3086Z" stroke="#A4119A" stroke-width="2.5" stroke-miterlimit="10" stroke-linecap="round" stroke-linejoin="round"></path>
  <path d="M21.3379 74.907H50.7368" stroke="#A4119A" stroke-width="2.5" stroke-miterlimit="10" stroke-linecap="round" stroke-linejoin="round"></path>
</svg>
