<?xml version="1.0" encoding="UTF-8"?>
<svg xmlns="http://www.w3.org/2000/svg" width="100" height="100" viewBox="0 0 100 100" fill="none">
  <path d="M48.181 41.4635C48.181 41.3685 48.1032 41.2907 48.0082 41.2907C47.9132 41.2907 47.8354 41.3685 47.8354 41.4635C47.8354 41.5585 47.9132 41.6362 48.0082 41.6362C48.1032 41.6362 48.181 41.5585 48.181 41.4635Z" fill="#A4119A" stroke="#A4119A" stroke-width="2.5"></path>
  <path d="M28.0894 50H28.3256C29.6801 41.9258 36.7029 35.7723 45.1626 35.7723C46.3464 35.7723 47.5031 35.8933 48.6185 36.1223C55.4777 37.5323 60.8344 43.0555 61.9996 50H69.3496C74.85 50 79.309 54.4589 79.309 59.9593C79.309 65.4598 74.85 69.9187 69.3496 69.9187H24.9594C19.4589 69.9187 15 65.4598 15 59.9593C15 54.4589 19.4589 50 24.9594 50H28.0894Z" stroke="#A4119A" stroke-width="2.5" stroke-miterlimit="10" stroke-linecap="round" stroke-linejoin="round"></path>
  <path d="M33.9385 50.9419C34.6997 46.4104 38.0444 42.9047 42.3285 41.8163" stroke="#A4119A" stroke-width="2.5" stroke-miterlimit="10" stroke-linecap="round" stroke-linejoin="round"></path>
  <path d="M48.6184 36.1224C50.2745 30.9677 55.1076 27.2358 60.8129 27.2358C67.8855 27.2358 73.6178 32.9681 73.6178 40.0407C73.6178 44.0643 71.7625 47.6539 68.8601 50C68.8473 50.0114 68.833 50.0228 68.8187 50.0342" stroke="#A4119A" stroke-width="2.5" stroke-miterlimit="10" stroke-linecap="round" stroke-linejoin="round"></path>
  <path d="M60.813 15V21.5447" stroke="#A4119A" stroke-width="2.5" stroke-miterlimit="10" stroke-linecap="round" stroke-linejoin="round"></path>
  <path d="M79.3088 40.0405H84.9999" stroke="#A4119A" stroke-width="2.5" stroke-miterlimit="10" stroke-linecap="round" stroke-linejoin="round"></path>
  <path d="M43.71 22.9376L47.735 26.9626" stroke="#A4119A" stroke-width="2.5" stroke-miterlimit="10" stroke-linecap="round" stroke-linejoin="round"></path>
  <path d="M73.8911 26.9626L77.9161 22.9376" stroke="#A4119A" stroke-width="2.5" stroke-miterlimit="10" stroke-linecap="round" stroke-linejoin="round"></path>
  <path d="M48.5772 69.9188L45.7317 75.6099" stroke="#A4119A" stroke-width="2.5" stroke-miterlimit="10" stroke-linecap="round" stroke-linejoin="round"></path>
  <path d="M37.195 78.4553L33.4958 85" stroke="#A4119A" stroke-width="2.5" stroke-miterlimit="10" stroke-linecap="round" stroke-linejoin="round"></path>
  <path d="M67.0731 69.9188L64.2275 75.6099" stroke="#A4119A" stroke-width="2.5" stroke-miterlimit="10" stroke-linecap="round" stroke-linejoin="round"></path>
  <path d="M55.6911 78.4553L51.9919 85" stroke="#A4119A" stroke-width="2.5" stroke-miterlimit="10" stroke-linecap="round" stroke-linejoin="round"></path>
  <path d="M18.6992 78.4553L15 85" stroke="#A4119A" stroke-width="2.5" stroke-miterlimit="10" stroke-linecap="round" stroke-linejoin="round"></path>
  <path d="M30.0814 69.9188L27.2358 75.6099" stroke="#A4119A" stroke-width="2.5" stroke-miterlimit="10" stroke-linecap="round" stroke-linejoin="round"></path>
</svg>
