<?xml version="1.0" encoding="UTF-8"?>
<svg xmlns="http://www.w3.org/2000/svg" width="100" height="100" viewBox="0 0 100 100" fill="none">
  <path d="M32.509 51.5885V85" stroke="#A4119A" stroke-width="2.3" stroke-miterlimit="10" stroke-linecap="round" stroke-linejoin="round"></path>
  <path d="M32.5093 65.6118L39.4121 58.709" stroke="#A4119A" stroke-width="2.3" stroke-miterlimit="10" stroke-linecap="round" stroke-linejoin="round"></path>
  <path d="M32.5092 59.4758L27.3042 54.2708" stroke="#A4119A" stroke-width="2.3" stroke-miterlimit="10" stroke-linecap="round" stroke-linejoin="round"></path>
  <path d="M50 84.1387V28.6584" stroke="#A4119A" stroke-width="2.3" stroke-miterlimit="10" stroke-linecap="round" stroke-linejoin="round"></path>
  <path d="M50.0308 38.0999L54.7896 33.341" stroke="#A4119A" stroke-width="2.3" stroke-miterlimit="10" stroke-linecap="round" stroke-linejoin="round"></path>
  <path d="M49.7275 44.5217L44.0454 38.8396" stroke="#A4119A" stroke-width="2.3" stroke-miterlimit="10" stroke-linecap="round" stroke-linejoin="round"></path>
  <path d="M78.0072 52.0531C78.2398 51.1578 78.3573 50.2365 78.3566 49.3115C78.3566 43.3156 73.4961 38.455 67.5002 38.455C61.5044 38.455 56.6438 43.3156 56.6438 49.3115C56.6438 51.0413 57.049 52.6764 57.7688 54.1279C53.308 55.2319 50.0002 59.2598 50.0002 64.0619C50.0002 69.7147 54.5827 74.2971 60.2355 74.2971C62.6365 74.2971 64.8427 73.4682 66.5882 72.0839C68.5014 73.4756 70.856 74.2971 73.4029 74.2971C79.8079 74.2971 85.0002 69.1047 85.0002 62.6997C85.0002 57.9308 82.1214 53.8348 78.0072 52.0531Z" stroke="#A4119A" stroke-width="2.3" stroke-miterlimit="10" stroke-linecap="round" stroke-linejoin="round"></path>
  <path d="M66.5879 55.8801V85" stroke="#A4119A" stroke-width="2.3" stroke-miterlimit="10" stroke-linecap="round" stroke-linejoin="round"></path>
  <path d="M66.5879 62.3923L72.604 56.3762" stroke="#A4119A" stroke-width="2.3" stroke-miterlimit="10" stroke-linecap="round" stroke-linejoin="round"></path>
  <path d="M66.588 67.8269L60.9241 62.163" stroke="#A4119A" stroke-width="2.3" stroke-miterlimit="10" stroke-linecap="round" stroke-linejoin="round"></path>
  <path d="M15 85H85" stroke="#A4119A" stroke-width="2.3" stroke-miterlimit="10" stroke-linecap="round" stroke-linejoin="round"></path>
  <path d="M84.9999 22.0664C84.9999 25.969 81.8361 29.1328 77.9335 29.1328C74.0308 29.1328 70.8672 25.969 70.8672 22.0664C70.8672 18.1637 74.0308 14.9999 77.9335 14.9999C81.8361 14.9999 84.9999 18.1637 84.9999 22.0664Z" stroke="#A4119A" stroke-width="2.3" stroke-miterlimit="10" stroke-linecap="round" stroke-linejoin="round"></path>
  <path d="M16.1658 61.9044C18.6942 68.464 25.0582 73.1182 32.5091 73.1182C41.4238 73.1182 48.7826 66.4558 49.8776 57.8384" stroke="#A4119A" stroke-width="2.3" stroke-miterlimit="10" stroke-linecap="round" stroke-linejoin="round"></path>
  <path d="M37.7343 38.893C36.0842 38.3778 34.3292 38.1001 32.5092 38.1001C25.058 38.1001 18.694 42.7545 16.1658 49.3145" stroke="#A4119A" stroke-width="2.3" stroke-miterlimit="10" stroke-linecap="round" stroke-linejoin="round"></path>
  <path d="M62.1522 39.8618C62.3073 38.7327 62.3849 37.5944 62.3846 36.4548C62.3846 27.2868 57.4033 19.2826 50 15C42.5965 19.2826 37.6152 27.2868 37.6152 36.4548C37.6152 45.6228 42.5965 53.6269 50 57.9097C52.6877 56.3538 55.0605 54.3087 56.996 51.88" stroke="#A4119A" stroke-width="2.3" stroke-miterlimit="10" stroke-linecap="round" stroke-linejoin="round"></path>
</svg>
