<?xml version="1.0" encoding="UTF-8"?>
<svg xmlns="http://www.w3.org/2000/svg" width="100" height="100" viewBox="0 0 100 100" fill="none">
  <path d="M86.8315 67.4412L75.6136 48.0099C75.5558 47.9096 75.4788 47.8217 75.387 47.7511C75.2952 47.6806 75.1904 47.6289 75.0786 47.5989C74.9668 47.5689 74.8502 47.5612 74.7354 47.5763C74.6207 47.5914 74.51 47.629 74.4097 47.6869L66.2727 52.385C66.0705 52.5021 65.9231 52.6947 65.8628 52.9204C65.8024 53.1461 65.8341 53.3865 65.9508 53.5889L75.3811 69.9241H61.6251V68.6509C61.625 68.1507 61.483 67.6607 61.2155 67.238C60.9479 66.8153 60.5659 66.4772 60.1138 66.263C59.6617 66.0488 59.1581 65.9673 58.6615 66.0281C58.165 66.0888 57.6959 66.2893 57.3087 66.6061L48.9332 73.4583C48.63 73.706 48.3857 74.018 48.218 74.3718C48.0502 74.7255 47.9632 75.1122 47.9632 75.5037C47.9632 75.8952 48.0502 76.2818 48.218 76.6356C48.3857 76.9893 48.63 77.3014 48.9332 77.5491L57.3087 84.4024C57.6959 84.7193 58.165 84.9197 58.6615 84.9805C59.1581 85.0412 59.6617 84.9597 60.1138 84.7456C60.5659 84.5314 60.9479 84.1933 61.2155 83.7706C61.483 83.3478 61.625 82.8579 61.6251 82.3576V81.0832H78.9551C79.9345 81.0832 80.8966 80.8254 81.7448 80.3358C82.593 79.8461 83.2973 79.1419 83.7871 78.2938L86.8315 73.0202C87.3214 72.1721 87.5793 71.21 87.5793 70.2307C87.5793 69.2513 87.3214 68.2892 86.8315 67.4412ZM67.9217 53.4714L74.5284 49.6484L83.4242 65.0557V65.0663C83.7076 65.5583 83.8565 66.1162 83.856 66.684C83.8555 67.2518 83.7057 67.8094 83.4215 68.301C83.1372 68.7925 82.7287 69.2006 82.2369 69.4843C81.745 69.7679 81.1872 69.9172 80.6194 69.9171H77.42L67.9217 53.4714ZM85.3058 72.1393L82.2614 77.4129C81.9264 77.993 81.4447 78.4749 80.8645 78.8099C80.2844 79.1449 79.6263 79.3213 78.9563 79.3215H60.7418C60.5082 79.3215 60.2842 79.4143 60.119 79.5795C59.9538 79.7447 59.861 79.9687 59.861 80.2024V82.3564C59.8611 82.5232 59.8138 82.6867 59.7247 82.8277C59.6356 82.9687 59.5083 83.0815 59.3576 83.153C59.2068 83.2245 59.0389 83.2517 58.8733 83.2315C58.7077 83.2113 58.5513 83.1445 58.4222 83.0388L50.0537 76.1855C49.9527 76.1029 49.8713 75.9988 49.8155 75.8809C49.7596 75.763 49.7306 75.6342 49.7306 75.5037C49.7306 75.3732 49.7596 75.2443 49.8155 75.1264C49.8713 75.0085 49.9527 74.9045 50.0537 74.8219L58.4245 67.9709C58.5536 67.8652 58.7101 67.7984 58.8757 67.7782C59.0412 67.758 59.2092 67.7852 59.3599 67.8567C59.5106 67.9282 59.638 68.041 59.7271 68.182C59.8162 68.323 59.8634 68.4865 59.8633 68.6533V70.8074C59.8633 71.041 59.9561 71.265 60.1213 71.4302C60.2865 71.5954 60.5106 71.6882 60.7442 71.6882H80.4573C81.517 71.7259 82.561 71.425 83.4381 70.8293C84.3152 70.2335 84.9796 69.3738 85.3351 68.3749C85.6555 68.9516 85.8212 69.6013 85.8161 70.261C85.8109 70.9206 85.6351 71.5677 85.3058 72.1393ZM44.0637 69.9253H25.1973L32.0753 58.011L33.1794 58.6475C33.6126 58.8975 34.1079 59.0194 34.6077 58.9991C35.1075 58.9787 35.5912 58.8169 36.0027 58.5325C36.4142 58.2481 36.7365 57.8528 36.9322 57.3924C37.1278 56.9321 37.1889 56.4257 37.1081 55.932L35.3616 45.2521C35.2984 44.8659 35.1501 44.4986 34.9276 44.1766C34.7051 43.8547 34.4138 43.5862 34.0749 43.3905C33.7359 43.1949 33.3578 43.0769 32.9677 43.0453C32.5776 43.0136 32.1854 43.0689 31.8193 43.2073L21.6961 47.0339C21.2281 47.2107 20.82 47.5168 20.5191 47.9164C20.2183 48.316 20.037 48.7928 19.9964 49.2914C19.9558 49.79 20.0575 50.2899 20.2898 50.7329C20.5221 51.176 20.8753 51.544 21.3085 51.7942L22.4125 52.432L13.7469 67.4412C13.2576 68.2892 13 69.251 13 70.2301C13 71.2091 13.2576 72.171 13.7469 73.019L16.7925 78.2926C17.2818 79.1409 17.9859 79.8454 18.8339 80.3353C19.6819 80.8251 20.6439 81.0831 21.6233 81.0832H44.0637C44.2973 81.0832 44.5213 80.9904 44.6865 80.8252C44.8517 80.66 44.9445 80.436 44.9445 80.2024V70.8062C44.9447 70.6905 44.922 70.5758 44.8778 70.4689C44.8336 70.362 44.7687 70.2648 44.6869 70.183C44.605 70.1011 44.5079 70.0362 44.4009 69.992C44.294 69.9478 44.1794 69.9251 44.0637 69.9253ZM20.5521 77.4105C20.7512 78.1114 21.0962 78.7622 21.5645 79.3203C20.9048 79.3094 20.2592 79.128 19.6903 78.7938C19.1215 78.4596 18.6488 77.9838 18.3182 77.4129L15.2726 72.1393C14.9379 71.5589 14.7618 70.9007 14.7618 70.2307C14.7618 69.5607 14.9379 68.9025 15.2726 68.3221L24.3787 52.5494C24.4954 52.3472 24.527 52.107 24.4667 51.8815C24.4063 51.656 24.2589 51.4636 24.0569 51.3467L22.1905 50.2697C22.0462 50.1863 21.9284 50.0636 21.851 49.9159C21.7736 49.7682 21.7397 49.6016 21.7532 49.4354C21.7667 49.2692 21.8271 49.1103 21.9274 48.9771C22.0277 48.8439 22.1638 48.7419 22.3197 48.6829L32.4418 44.854C32.5639 44.8079 32.6947 44.7896 32.8248 44.8002C32.9549 44.8108 33.081 44.8502 33.1941 44.9155C33.3071 44.9808 33.4042 45.0703 33.4785 45.1777C33.5527 45.2851 33.6022 45.4076 33.6233 45.5364L35.3722 56.2163C35.3992 56.3809 35.3789 56.5497 35.3137 56.7032C35.2485 56.8567 35.1411 56.9886 35.0039 57.0834C34.8668 57.1783 34.7055 57.2323 34.5388 57.2391C34.3722 57.2459 34.2071 57.2052 34.0626 57.1218L32.1975 56.0448C31.9951 55.9281 31.7547 55.8964 31.529 55.9567C31.3033 56.0171 31.1107 56.1645 30.9936 56.3666L21.1335 73.4395C20.7767 74.0292 20.5414 74.6843 20.4416 75.3662C20.3417 76.0482 20.3793 76.7433 20.5521 77.4105ZM25.3888 79.3215H25.3723C24.8044 79.3212 24.2465 79.1715 23.7547 78.8874C23.2629 78.6033 22.8545 78.1948 22.5705 77.7029C22.2866 77.211 22.137 76.6531 22.1369 76.0851C22.1368 75.5171 22.2861 74.9592 22.5699 74.4672L24.1755 71.6859H43.1792V79.3203L25.3888 79.3215ZM31.5151 38.4211L39.6533 43.1192C39.8557 43.2358 40.096 43.2672 40.3215 43.2067C40.5471 43.1461 40.7393 42.9985 40.856 42.7962L50.2886 26.4621L57.1654 38.373L56.0626 39.0096C55.629 39.2596 55.2754 39.6275 55.0428 40.0706C54.8102 40.5138 54.7082 41.0138 54.7487 41.5126C54.7892 42.0114 54.9705 42.4885 55.2715 42.8883C55.5725 43.2881 55.9808 43.5942 56.449 43.7711L66.5722 47.5977C66.9382 47.7363 67.3305 47.7918 67.7207 47.7602C68.1108 47.7286 68.4891 47.6107 68.8281 47.415C69.1671 47.2193 69.4584 46.9507 69.6809 46.6287C69.9033 46.3066 70.0515 45.9391 70.1145 45.5528L71.8622 34.8717C71.9426 34.378 71.8813 33.8717 71.6855 33.4114C71.4896 32.9512 71.1672 32.5559 70.7557 32.2716C70.3442 31.9872 69.8605 31.8255 69.3607 31.8051C68.8609 31.7846 68.3656 31.9064 67.9323 32.1562L66.8294 32.794L58.1638 17.7871C57.6737 16.9395 56.9692 16.2357 56.121 15.7465C55.2729 15.2572 54.3109 14.9998 53.3318 15H47.2419C46.2627 15.0001 45.3008 15.258 44.4528 15.7476C43.6049 16.2373 42.9007 16.9415 42.4111 17.7895L31.1921 37.2184C31.1342 37.3186 31.0966 37.4291 31.0816 37.5438C31.0665 37.6585 31.0741 37.775 31.1041 37.8868C31.1341 37.9985 31.1859 38.1032 31.2564 38.1949C31.3269 38.2866 31.4148 38.3634 31.5151 38.4211ZM47.2419 16.7618H53.3318C54.0019 16.7617 54.6603 16.938 55.2407 17.2731C55.821 17.6081 56.303 18.09 56.6381 18.6704L65.743 34.4418C65.8599 34.6442 66.0524 34.7918 66.2781 34.8524C66.5038 34.913 66.7443 34.8815 66.9468 34.7648L68.8131 33.6878C68.9575 33.6045 69.1225 33.5639 69.289 33.5707C69.4555 33.5775 69.6167 33.6313 69.7538 33.726C69.891 33.8207 69.9984 33.9524 70.0637 34.1057C70.129 34.259 70.1495 34.4277 70.1227 34.5922L68.3762 45.2709C68.3551 45.3997 68.3057 45.5222 68.2314 45.6296C68.1572 45.7369 68.06 45.8264 67.9469 45.8916C67.8338 45.9568 67.7077 45.996 67.5776 46.0065C67.4475 46.017 67.3167 45.9984 67.1947 45.9521L57.0726 42.1244C56.9167 42.0654 56.7806 41.9634 56.6803 41.8302C56.58 41.697 56.5196 41.5381 56.5061 41.3719C56.4925 41.2057 56.5265 41.039 56.6039 40.8914C56.6813 40.7437 56.7991 40.621 56.9434 40.5376L58.8098 39.4606C59.0122 39.3434 59.1599 39.1507 59.2202 38.9247C59.2806 38.6987 59.2487 38.458 59.1316 38.2555L49.275 21.185C48.778 20.2482 47.9954 19.4942 47.0407 19.0325C46.0861 18.5708 45.0091 18.4254 43.9662 18.6175C44.3059 18.0521 44.7861 17.5841 45.36 17.2589C45.934 16.9338 46.5822 16.7625 47.2419 16.7618ZM42.0529 21.9297L42.0599 21.9191C42.344 21.4274 42.7524 21.0191 43.2442 20.7353C43.736 20.4514 44.2939 20.302 44.8617 20.302C45.4296 20.302 45.9874 20.4514 46.4792 20.7353C46.971 21.0191 47.3795 21.4274 47.6636 21.9191L49.2691 24.7004L39.7708 41.1531L33.1582 37.3359L42.0529 21.9297Z" fill="#A4119A" stroke="#A4119A" stroke-width="0.5"></path>
  <path d="M50.5823 62.8426C48.6157 62.8404 46.7302 62.0582 45.3396 60.6676C43.949 59.2769 43.1668 57.3915 43.1646 55.4248C43.1646 48.9779 49.9833 42.8202 50.2736 42.5615C50.3584 42.4856 50.4682 42.4436 50.5821 42.4436C50.6959 42.4436 50.8058 42.4856 50.8906 42.5615C51.1813 42.8202 58.0001 48.9779 58.0001 55.4248C57.9979 57.3915 57.2157 59.2769 55.825 60.6676C54.4344 62.0582 52.549 62.8404 50.5823 62.8426ZM50.5823 43.5434C49.2532 44.8253 44.0918 50.1452 44.0918 55.4248C44.0918 57.1462 44.7756 58.7971 45.9928 60.0144C47.21 61.2316 48.8609 61.9154 50.5823 61.9154C52.3037 61.9154 53.9546 61.2316 55.1718 60.0144C56.3891 58.7971 57.0729 57.1462 57.0729 55.4248C57.0729 50.1452 51.9115 44.8253 50.5823 43.5434Z" fill="#A4119A" stroke="#A4119A"></path>
  <path d="M49.345 60.132C49.2642 60.1419 49.1822 60.1303 49.1073 60.0983C48.2101 59.7138 47.4294 59.1009 46.843 58.3206C46.2565 57.5403 45.8848 56.6199 45.765 55.6511C45.7501 55.5291 45.7844 55.4061 45.8602 55.3093C45.936 55.2125 46.0471 55.1498 46.1692 55.1349C46.2913 55.1201 46.4142 55.1543 46.511 55.2301C46.6078 55.3059 46.6706 55.4171 46.6854 55.5391C46.7853 56.3466 47.0951 57.1137 47.5839 57.7641C48.0728 58.4144 48.7237 58.9252 49.4716 59.2455C49.5653 59.2857 49.6432 59.3556 49.6932 59.4445C49.7432 59.5334 49.7624 59.6363 49.748 59.7373C49.7336 59.8382 49.6863 59.9316 49.6134 60.003C49.5406 60.0743 49.4462 60.1197 49.345 60.132Z" fill="#A4119A" stroke="#A4119A" stroke-width="0.5"></path>
</svg>
