<?xml version="1.0" encoding="UTF-8"?>
<svg xmlns="http://www.w3.org/2000/svg" width="61" height="61" viewBox="0 0 61 61" fill="none">
  <rect width="61" height="61" fill="#A4119A"></rect>
  <path d="M47.5377 43.6127L42.1012 32.5785L47.739 29.8723L47.0383 28.4226L40.6997 31.4832C40.6044 31.5296 40.5192 31.5943 40.4489 31.6737C40.3787 31.7531 40.3248 31.8456 40.2904 31.9459C40.256 32.0461 40.2417 32.1522 40.2484 32.258C40.255 32.3638 40.2825 32.4673 40.3292 32.5624L40.74 33.3678C39.5802 33.4725 37.5828 33.2631 34.2967 31.9342C33.0918 31.3995 31.7699 31.1824 30.4573 31.3037C29.1446 31.4249 27.8849 31.8805 26.7983 32.6269C25.7498 33.359 24.8299 34.2598 24.076 35.2928C23.2964 35.0673 22.5532 34.7309 21.8692 34.2941L22.0625 33.9638C22.1155 33.8721 22.1499 33.7708 22.1637 33.6658C22.1776 33.5608 22.1705 33.454 22.143 33.3517C22.1155 33.2489 22.0679 33.1525 22.003 33.0682C21.938 32.9839 21.8569 32.9132 21.7645 32.8604L15.8286 29.4696L15.0232 30.863L20.2664 33.8591L14.0486 44.5389L8.80541 41.5428L8 42.9361L13.9117 46.335C14.0967 46.44 14.3156 46.4676 14.5208 46.4117C14.726 46.3559 14.9008 46.2212 15.0071 46.037L15.2004 45.7068L16.7387 46.8424L16.5696 47.0921C16.4088 47.3246 16.2955 47.5866 16.236 47.863C16.1766 48.1394 16.1723 48.4248 16.2233 48.7029C16.2731 48.9878 16.3792 49.26 16.5355 49.5034C16.6918 49.7468 16.895 49.9565 17.1334 50.1204L17.5119 50.3781C17.8743 50.6284 18.3038 50.7631 18.7442 50.7647C18.8059 50.7687 18.8678 50.7687 18.9294 50.7647C19.0481 51.245 19.3335 51.6675 19.7349 51.9568L20.1134 52.2225C20.4735 52.4702 20.9006 52.6022 21.3376 52.6011C21.4716 52.6134 21.6064 52.6134 21.7403 52.6011C21.8956 52.5698 22.0469 52.5212 22.1914 52.4561C22.3526 52.729 22.5694 52.965 22.8276 53.1488L23.2062 53.4065C23.5656 53.6565 23.9926 53.7914 24.4304 53.7931H24.6237C24.7557 54.2758 25.0556 54.6956 25.4694 54.977L25.8399 55.2348C26.2 55.4824 26.627 55.6145 27.0641 55.6133C27.4186 55.614 27.768 55.5285 28.0823 55.3644C28.3965 55.2003 28.6662 54.9623 28.8682 54.671L29.0937 54.3408L31.2684 55.6536C31.6405 55.8777 32.0662 55.9974 32.5006 55.9999C32.917 56.0001 33.3264 55.8927 33.6891 55.6881C34.0518 55.4835 34.3554 55.1886 34.5705 54.8321C34.7193 54.5846 34.8204 54.3114 34.8686 54.0267C35.083 54.0902 35.3054 54.1228 35.529 54.1233C35.9454 54.1235 36.3548 54.0161 36.7175 53.8115C37.0801 53.6069 37.3838 53.312 37.5989 52.9555C37.7516 52.6946 37.8553 52.408 37.905 52.1098C38.1163 52.1745 38.3363 52.2071 38.5573 52.2064C38.9724 52.2052 39.3801 52.0972 39.7413 51.8926C40.1024 51.6881 40.4048 51.3939 40.6192 51.0386C40.7591 50.805 40.8572 50.5488 40.9091 50.2815L41.03 50.354C41.4045 50.5795 41.8331 50.6992 42.2703 50.7003C42.6867 50.7005 43.0961 50.5931 43.4588 50.3885C43.8214 50.1839 44.1251 49.889 44.3402 49.5325C44.5629 49.1571 44.6798 48.7285 44.6785 48.2921C44.6801 47.9503 44.6091 47.612 44.4702 47.2996C44.3314 46.9872 44.1279 46.7078 43.8731 46.4799C44.4121 45.5977 45.1179 44.829 45.951 44.2167L46.4101 45.143C46.4765 45.2785 46.5797 45.3927 46.7079 45.4724C46.836 45.5522 46.984 45.5943 47.135 45.594C47.255 45.5933 47.3733 45.5658 47.4813 45.5135L53.8199 42.4529L53.1192 41.0031L47.5377 43.6127ZM19.2436 48.9042C19.2008 48.9674 19.1458 49.0213 19.0819 49.0629C19.018 49.1045 18.9464 49.1329 18.8714 49.1464C18.7963 49.1599 18.7194 49.1582 18.6449 49.1416C18.5705 49.1249 18.5002 49.0935 18.4381 49.0492L18.0596 48.7915C17.9965 48.7487 17.9425 48.6938 17.9009 48.6299C17.8594 48.5659 17.831 48.4944 17.8175 48.4193C17.804 48.3443 17.8056 48.2673 17.8223 48.1929C17.839 48.1185 17.8704 48.0482 17.9146 47.9861L19.0986 46.2705C19.1837 46.1477 19.314 46.0637 19.461 46.037C19.535 46.0243 19.6108 46.0263 19.6841 46.0428C19.7573 46.0594 19.8266 46.0903 19.8879 46.1336L20.2584 46.3914C20.3215 46.4309 20.3752 46.4839 20.4156 46.5465C20.4559 46.6092 20.482 46.6799 20.4919 46.7538C20.5077 46.8272 20.5079 46.9031 20.4927 46.9766C20.4774 47.0501 20.447 47.1196 20.4033 47.1807L19.2436 48.9042ZM21.8773 50.7245C21.7922 50.8473 21.6618 50.9313 21.5148 50.958C21.3665 50.9819 21.2145 50.9504 21.0879 50.8694L20.7094 50.6117C20.6463 50.569 20.5923 50.514 20.5507 50.4501C20.5092 50.3862 20.4808 50.3146 20.4673 50.2395C20.4538 50.1645 20.4554 50.0875 20.4721 50.0131C20.4888 49.9387 20.5202 49.8684 20.5644 49.8063L22.1753 47.4464C22.2164 47.3847 22.2698 47.3321 22.3321 47.2919C22.3945 47.2517 22.4645 47.2248 22.5377 47.2129H22.6424C22.757 47.2126 22.8691 47.2462 22.9646 47.3095L23.335 47.5673C23.459 47.6527 23.5455 47.7824 23.5767 47.9297C23.5898 48.0037 23.5881 48.0796 23.5715 48.1529C23.5549 48.2262 23.5238 48.2954 23.48 48.3566L21.8773 50.7245ZM24.97 51.9084C24.9273 51.9716 24.8723 52.0255 24.8084 52.0671C24.7445 52.1087 24.6729 52.137 24.5979 52.1506C24.5228 52.1641 24.4458 52.1624 24.3714 52.1457C24.297 52.1291 24.2267 52.0977 24.1646 52.0534L23.7861 51.7957C23.6651 51.7088 23.5817 51.5793 23.5525 51.4332C23.5287 51.2849 23.5602 51.133 23.6411 51.0064L24.809 49.315C24.8955 49.1879 25.029 49.1005 25.18 49.0718C25.331 49.0431 25.4873 49.0755 25.6144 49.162L25.9929 49.4278C26.056 49.4705 26.11 49.5255 26.1516 49.5894C26.1932 49.6533 26.2215 49.7249 26.235 49.7999C26.2485 49.875 26.2469 49.952 26.2302 50.0264C26.2135 50.1008 26.1821 50.1711 26.1379 50.2332L24.97 51.9084ZM28.3205 52.7138L27.6037 53.6964C27.5146 53.8205 27.3807 53.905 27.2304 53.932C27.0801 53.9591 26.9251 53.9266 26.7983 53.8414L26.4198 53.5837C26.3566 53.5409 26.3027 53.486 26.2611 53.4221C26.2195 53.3581 26.1912 53.2866 26.1776 53.2115C26.1641 53.1365 26.1658 53.0595 26.1825 52.9851C26.1991 52.9107 26.2305 52.8404 26.2748 52.7783L26.9916 51.7393C27.0344 51.6762 27.0893 51.6222 27.1532 51.5806C27.2172 51.539 27.2887 51.5107 27.3638 51.4972C27.4388 51.4836 27.5158 51.4853 27.5902 51.502C27.6646 51.5187 27.7349 51.5501 27.797 51.5943L28.1675 51.852C28.2313 51.8942 28.286 51.9487 28.3283 52.0123C28.3707 52.0759 28.3998 52.1474 28.4141 52.2224C28.4284 52.2975 28.4275 52.3747 28.4114 52.4494C28.3953 52.5241 28.3644 52.5949 28.3205 52.6575V52.7138ZM43.0274 48.6868C42.9175 48.8674 42.7411 48.9976 42.5361 49.0492C42.3309 49.1001 42.1139 49.0683 41.932 48.9606L37.0995 46.0692L36.2941 47.4464L39.0406 49.0573C39.2212 49.1671 39.3514 49.3436 39.403 49.5486C39.4539 49.7537 39.4221 49.9707 39.3144 50.1526C39.2046 50.3332 39.0281 50.4634 38.8231 50.5151C38.6179 50.5659 38.401 50.5341 38.2191 50.4265L34.788 48.3566L33.9826 49.7338L36.0445 50.9741C36.2217 51.0876 36.3508 51.2626 36.4069 51.4654C36.4414 51.6178 36.4309 51.7769 36.3766 51.9233C36.3223 52.0698 36.2266 52.1973 36.1011 52.2904C35.9756 52.3834 35.8258 52.4379 35.6699 52.4473C35.514 52.4568 35.3587 52.4206 35.2229 52.3433L31.7919 50.2734L30.9865 51.6507L33.0564 52.9071C33.1912 53.0325 33.279 53.2004 33.3051 53.3826C33.3312 53.5649 33.2941 53.7506 33.1999 53.9088C33.1057 54.0671 32.9602 54.1882 32.7875 54.2522C32.6148 54.3161 32.4255 54.319 32.251 54.2602L29.9636 52.8749C30.0514 52.5605 30.0706 52.2309 30.02 51.9084C29.9691 51.627 29.8633 51.3583 29.7085 51.1179C29.5537 50.8774 29.353 50.6698 29.1179 50.507L28.7152 50.2976C28.4546 50.119 28.1574 50.0007 27.8454 49.9513C27.8614 49.796 27.8614 49.6394 27.8454 49.4841C27.7957 49.2013 27.6895 48.9315 27.5331 48.6907C27.3768 48.4499 27.1734 48.2431 26.9352 48.0827L26.5647 47.825C26.1496 47.5406 25.6484 47.4096 25.1472 47.4545C25.0032 46.9687 24.6923 46.5495 24.2693 46.2705L23.8908 46.0128C23.4208 45.6889 22.8416 45.5644 22.28 45.6665C22.1256 45.6976 21.9746 45.7435 21.8289 45.8034C21.6674 45.533 21.4505 45.2997 21.1927 45.1188L20.8141 44.8611C20.3384 44.5346 19.7527 44.4099 19.1852 44.514C18.6178 44.6181 18.1146 44.9427 17.7858 45.4168L17.7052 45.5376L16.0944 44.3295L21.0718 35.7116C21.7266 36.1234 22.4265 36.4585 23.1579 36.7103C22.3687 37.8951 21.834 39.2307 21.5873 40.6327C21.6076 41.0484 21.7697 41.4447 22.0467 41.7554C22.3237 42.0661 22.6988 42.2725 23.1095 42.3401C24.5754 42.7267 27.346 42.1388 29.3756 39.1185L42.7455 47.5028C42.8645 47.5734 42.9634 47.6735 43.0325 47.7934C43.1017 47.9133 43.1387 48.049 43.1401 48.1874C43.1401 48.332 43.1011 48.4739 43.0274 48.5982V48.6868ZM42.5602 45.4651L36.6324 41.7522C37.5045 41.2489 38.2465 40.5483 38.799 39.7064L37.3975 38.901C36.8119 39.7336 35.9939 40.3751 35.0457 40.7454L29.5448 37.2982C29.4521 37.2404 29.3486 37.2019 29.2406 37.1853C29.1326 37.1687 29.0223 37.1743 28.9166 37.2016C28.8122 37.2281 28.7143 37.2753 28.6286 37.3403C28.5428 37.4053 28.4709 37.4869 28.4172 37.5801C27.0722 39.9561 25.1956 40.8018 24.0116 40.8018C23.7267 40.831 23.4408 40.7567 23.2062 40.5924C23.8878 37.9312 25.4559 35.5819 27.6521 33.9316C28.5172 33.3276 29.5248 32.9595 30.5756 32.8634C31.6263 32.7674 32.684 32.9468 33.6443 33.3839C36.9465 34.729 39.5641 35.2122 41.4407 34.8498L45.2664 42.622C44.1807 43.3762 43.26 44.3436 42.5602 45.4651Z" fill="white"></path>
  <path d="M48.0612 40.1735L49.6656 39.385L50.3759 40.8299L48.7724 41.6192L48.0612 40.1735ZM46.9336 26.1352V12.4432C46.9342 12.3372 46.9139 12.2321 46.8738 12.134C46.8338 12.0359 46.7747 11.9466 46.7 11.8713L41.0622 6.23346C40.9869 6.15881 40.8977 6.09976 40.7995 6.05968C40.7014 6.0196 40.5963 5.99928 40.4903 5.99989H16.328C15.9007 5.99989 15.491 6.1696 15.1889 6.47169C14.8868 6.77378 14.7171 7.1835 14.7171 7.61072V26.9406H16.328V7.61072H39.6849V11.6378C39.6849 12.065 39.8546 12.4747 40.1567 12.7768C40.4588 13.0789 40.8685 13.2486 41.2957 13.2486H45.3228V26.1352H46.9336ZM41.2957 11.6378V8.74635L44.1872 11.6378H41.2957Z" fill="white"></path>
  <path d="M22.7713 18.8865C22.7713 20.4795 23.2436 22.0367 24.1286 23.3611C25.0136 24.6856 26.2715 25.718 27.7432 26.3276C29.2149 26.9372 30.8343 27.0967 32.3967 26.7859C33.959 26.4751 35.3941 25.708 36.5205 24.5816C37.6469 23.4553 38.414 22.0201 38.7248 20.4578C39.0355 18.8955 38.876 17.276 38.2664 15.8043C37.6568 14.3326 36.6245 13.0748 35.3 12.1898C33.9755 11.3048 32.4183 10.8324 30.8254 10.8324C28.6893 10.8324 26.6407 11.681 25.1303 13.1914C23.6198 14.7018 22.7713 16.7504 22.7713 18.8865ZM37.2687 18.8865C37.2687 20.1609 36.8908 21.4066 36.1828 22.4662C35.4748 23.5258 34.4685 24.3517 33.2911 24.8394C32.1138 25.327 30.8182 25.4546 29.5684 25.206C28.3185 24.9574 27.1704 24.3437 26.2693 23.4426C25.3682 22.5415 24.7545 21.3934 24.5059 20.1435C24.2573 18.8937 24.3849 17.5981 24.8726 16.4208C25.3602 15.2434 26.1861 14.2371 27.2457 13.5291C28.3053 12.8211 29.551 12.4432 30.8254 12.4432C32.5343 12.4432 34.1731 13.1221 35.3815 14.3304C36.5898 15.5388 37.2687 17.1777 37.2687 18.8865Z" fill="white"></path>
  <path d="M27.8373 18.7656L26.6936 19.9093L28.691 21.8987C28.8419 22.0487 29.0461 22.1329 29.2588 22.1329C29.4716 22.1329 29.6758 22.0487 29.8267 21.8987L34.9571 16.7763L33.8134 15.6648L29.2629 20.2234L27.8373 18.7656Z" fill="white"></path>
</svg>
