<?xml version="1.0" encoding="UTF-8"?>
<svg xmlns="http://www.w3.org/2000/svg" width="61" height="61" viewBox="0 0 61 61" fill="none">
  <rect width="61" height="61" fill="#A4119A"></rect>
  <path fill-rule="evenodd" clip-rule="evenodd" d="M36.2273 36.3556C36.2846 36.4886 36.3771 36.6033 36.495 36.6873C36.6128 36.7714 36.7515 36.8215 36.8958 36.8322C37.0402 36.843 37.1847 36.8139 37.3137 36.7483C37.4427 36.6826 37.5512 36.5829 37.6275 36.4598L39.546 33.3683L43.1104 34.0982C43.2522 34.1272 43.3992 34.1168 43.5355 34.0682C43.6717 34.0195 43.7921 33.9344 43.8834 33.8222C43.9747 33.71 44.0336 33.5749 44.0536 33.4315C44.0735 33.2882 44.0538 33.1422 43.9967 33.0093L41.3495 26.8631C41.4304 26.8287 41.5133 26.7934 41.6006 26.7561C42.9657 26.1715 43.7644 24.788 43.5882 23.3135C43.5554 23.0396 43.5248 22.796 43.4974 22.5772C43.3875 21.6998 43.3321 21.2593 43.3915 20.9228C43.4509 20.5863 43.6534 20.1912 44.0569 19.4044C44.1576 19.2081 44.2696 18.9896 44.3941 18.7434C45.064 17.4181 44.7866 15.8448 43.7038 14.8287C43.5028 14.6399 43.3226 14.4729 43.1611 14.3229C42.5127 13.7215 42.1872 13.4196 42.0165 13.1237C41.8456 12.8277 41.7469 12.395 41.5502 11.5329C41.5011 11.3179 41.4465 11.0784 41.3835 10.8098C41.0448 9.36387 39.8211 8.33707 38.3384 8.25462C38.063 8.23928 37.8177 8.2271 37.5975 8.21612C36.7142 8.17217 36.2709 8.1501 35.9498 8.03321C35.6287 7.91631 35.275 7.64828 34.57 7.11419C34.3731 6.96465 34.1756 6.81572 33.9778 6.6674C32.7888 5.77758 31.1915 5.77748 30.0026 6.6674C29.8047 6.81572 29.6073 6.96465 29.4103 7.11419C28.7054 7.64828 28.3516 7.91631 28.0305 8.03321C27.7094 8.1501 27.266 8.17217 26.3828 8.21612C26.1625 8.2271 25.9173 8.23928 25.642 8.25462C24.1593 8.33707 22.9354 9.36397 22.5968 10.8098C22.5339 11.0784 22.4792 11.3178 22.4301 11.5329C22.2335 12.395 22.1348 12.8278 21.9638 13.1237C21.793 13.4196 21.4676 13.7215 20.8192 14.3229C20.6576 14.4729 20.4776 14.6399 20.2765 14.8287C19.1938 15.8449 18.9163 17.4182 19.5862 18.7435C19.7106 18.9895 19.8226 19.208 19.9232 19.4042C20.3267 20.1911 20.5293 20.5862 20.5887 20.9227C20.6481 21.2591 20.5928 21.6996 20.4828 22.5769C20.4554 22.7958 20.4248 23.0395 20.3921 23.3135C20.2159 24.788 21.0145 26.1715 22.3796 26.7561C22.6332 26.8647 22.8595 26.9601 23.0627 27.0457L23.2403 27.1206L19.9931 34.095C19.932 34.2262 19.9081 34.3717 19.9238 34.5155C19.9396 34.6594 19.9944 34.7962 20.0825 34.911C20.1704 35.026 20.2883 35.1145 20.4231 35.1671C20.558 35.2197 20.7047 35.2343 20.8473 35.2093L24.4316 34.583L26.2596 37.7288C26.3323 37.854 26.4379 37.9568 26.5649 38.0261C26.692 38.0954 26.8356 38.1286 26.9802 38.1221C27.1247 38.1155 27.2647 38.0695 27.385 37.9889C27.5052 37.9084 27.6011 37.7964 27.6621 37.6652L30.8937 30.7239C31.4121 30.5681 31.7264 30.4897 31.9904 30.4897C32.332 30.4897 32.7563 30.6205 33.6013 30.8813C33.6991 30.9115 33.8027 30.9435 33.9112 30.9767L36.2273 36.3556ZM39.323 31.706C39.1644 31.6736 38.9996 31.6905 38.8509 31.7546C38.7022 31.8186 38.5767 31.9267 38.4913 32.0642L37.0817 34.3358L35.736 31.2111C36.6597 31.0829 37.5051 30.5654 38.0455 29.7389C38.1964 29.508 38.3296 29.3017 38.4493 29.1164C38.9291 28.3735 39.1698 28.0006 39.4316 27.7809C39.5491 27.6823 39.6966 27.5932 39.8968 27.494L41.9419 32.2423L39.323 31.706ZM26.866 35.6215L25.523 33.3101C25.4416 33.1702 25.3193 33.0585 25.1725 32.9902C25.0258 32.9219 24.8616 32.9002 24.7021 32.928L22.0687 33.388L24.6399 27.8654C24.8696 28.0937 25.107 28.4609 25.5303 29.1165C25.6643 29.3244 25.7989 29.5318 25.9342 29.7389C26.6023 30.7607 27.7359 31.3111 28.9078 31.2361L26.866 35.6215ZM31.9898 28.9052C31.4509 28.9052 30.9119 29.0595 29.9118 29.3681C29.6785 29.4403 29.4451 29.5118 29.2113 29.5826C28.4574 29.8103 27.6909 29.5317 27.2595 28.8721C27.1103 28.6442 26.9788 28.4404 26.8607 28.2575C25.7251 26.499 25.6061 26.3993 23.6772 25.5864C23.4765 25.5018 23.253 25.4076 23.0026 25.3003C22.2782 24.99 21.8705 24.2839 21.964 23.5014C21.9964 23.2309 22.0266 22.9901 22.0537 22.774C22.3141 20.6972 22.2871 20.5442 21.3319 18.6814C21.2203 18.4643 21.1094 18.2468 20.9991 18.029C20.6436 17.3256 20.7852 16.5227 21.3599 15.9834C21.5585 15.797 21.7363 15.6321 21.8959 15.4839C23.4306 14.0603 23.5082 13.9258 23.9738 11.8852C24.0222 11.6727 24.0761 11.4363 24.1383 11.1709C24.3179 10.4036 24.9426 9.87955 25.7295 9.8358C26.0015 9.82066 26.2437 9.80858 26.4612 9.7978C28.5518 9.69367 28.6979 9.64052 30.3663 8.37646C30.5399 8.24492 30.7332 8.09843 30.9513 7.93522C31.5823 7.46299 32.3975 7.46299 33.0285 7.93522C33.2465 8.09843 33.4398 8.24492 33.6134 8.37646C35.2818 9.64052 35.4279 9.69367 37.5185 9.7978C37.736 9.80858 37.9783 9.82066 38.2503 9.8358C39.0371 9.87955 39.6617 10.4036 39.8414 11.1709C39.9036 11.4362 39.9575 11.6726 40.0059 11.8851C40.4715 13.9257 40.5491 14.0603 42.0838 15.4838C42.2435 15.632 42.4212 15.7969 42.6199 15.9833C43.1945 16.5226 43.336 17.3255 42.9805 18.0289C42.8703 18.2468 42.7593 18.4644 42.6476 18.6816C41.6925 20.5442 41.6655 20.6972 41.926 22.7742C41.9531 22.9903 41.9833 23.2309 42.0156 23.5013C42.1091 24.2838 41.7014 24.99 40.977 25.3002C40.7266 25.4074 40.5031 25.5016 40.3025 25.5863C38.3736 26.3992 38.2546 26.499 37.119 28.2574C36.9868 28.4627 36.8538 28.6677 36.7203 28.8721C36.289 29.5316 35.5231 29.8107 34.7684 29.5826C34.5077 29.5038 34.276 29.4323 34.0679 29.3681C33.0676 29.0595 32.5286 28.9052 31.9898 28.9052ZM39.8484 18.6211C39.8484 14.2879 36.3231 10.7625 31.9898 10.7625C27.6566 10.7625 24.1313 14.2879 24.1313 18.6211C24.1313 22.9544 27.6566 26.4798 31.9898 26.4798C36.323 26.4798 39.8484 22.9545 39.8484 18.6211ZM31.9897 24.8962C28.5297 24.8962 25.7148 22.0812 25.7148 18.6211C25.7148 15.1611 28.5297 12.3462 31.9897 12.3462C35.4497 12.3462 38.2646 15.1611 38.2646 18.6211C38.2647 22.0812 35.4497 24.8962 31.9897 24.8962ZM36.3386 16.7541L30.9315 21.6612C30.786 21.7936 30.5962 21.8668 30.3995 21.8666C30.2955 21.8668 30.1924 21.8463 30.0963 21.8066C30.0002 21.7668 29.9129 21.7084 29.8395 21.6347L27.6132 19.4085C27.539 19.3351 27.48 19.2478 27.4396 19.1516C27.3992 19.0553 27.3782 18.952 27.3779 18.8476C27.3776 18.7432 27.398 18.6398 27.4378 18.5433C27.4776 18.4468 27.5361 18.3591 27.6099 18.2853C27.6837 18.2115 27.7714 18.153 27.8679 18.1132C27.9644 18.0734 28.0678 18.0531 28.1722 18.0534C28.2766 18.0537 28.3799 18.0747 28.4761 18.1151C28.5724 18.1555 28.6597 18.2145 28.7331 18.2888L30.4259 19.9816L35.2744 15.5815C35.4304 15.4436 35.6344 15.3726 35.8423 15.3841C36.0502 15.3955 36.2453 15.4884 36.3852 15.6426C36.5252 15.7967 36.5987 15.9999 36.59 16.2079C36.5813 16.4159 36.491 16.6122 36.3386 16.7541ZM51.371 42.698C52.4147 41.6544 52.9447 40.3379 52.9038 38.8908L52.5182 25.2779C52.4802 23.9337 51.1438 22.7292 49.7028 22.7292C49.6889 22.7292 49.6752 22.7293 49.6614 22.7295C48.9584 22.7408 46.6661 23.1195 46.6827 27.5194L46.711 34.914C46.7119 35.079 46.7012 35.2438 46.679 35.4073C46.6221 35.3395 46.5623 35.2742 46.4996 35.2116C45.5223 34.2344 43.9218 34.222 42.8558 35.1834C42.8293 35.2073 42.8044 35.2329 42.7814 35.2601C41.5886 36.6704 40.123 37.9056 38.9453 38.8981C38.5323 39.2462 38.1423 39.5749 37.822 39.8635C36.4789 41.074 36.2997 42.7419 36.3015 44.2137L36.3078 49.48L35.625 49.4741C35.1626 49.4699 34.7269 49.647 34.3963 49.9718C34.0657 50.2968 33.8814 50.7301 33.8775 51.1918L33.8598 53.2518C33.8558 53.7135 34.0326 54.1499 34.3575 54.4805C34.6824 54.8111 35.1157 54.9953 35.5774 54.9992L46.2786 55.0912L46.2938 55.0913C46.7498 55.0913 47.1803 54.9148 47.5072 54.5934C47.8378 54.2685 48.022 53.8352 48.026 53.3735L48.0437 51.3136C48.0477 50.8518 47.8709 50.4154 47.5459 50.0848C47.2211 49.7542 46.7878 49.57 46.326 49.5661L45.4456 49.5586V48.6233L51.371 42.698ZM46.46 51.3L46.4423 53.3599C46.4419 53.4096 46.4175 53.4441 46.397 53.4642C46.3835 53.4783 46.3672 53.4895 46.3491 53.497C46.331 53.5045 46.3116 53.5081 46.2921 53.5077L35.5909 53.4158C35.5413 53.4154 35.5069 53.3909 35.4868 53.3704C35.4667 53.3499 35.4428 53.3152 35.4433 53.2655L35.461 51.2056C35.4614 51.1559 35.4859 51.1214 35.5064 51.1013C35.5266 51.0815 35.561 51.0578 35.6098 51.0578H35.6113L46.3125 51.1497C46.3518 51.1506 46.3892 51.1668 46.4168 51.1949C46.4444 51.2229 46.4599 51.2607 46.46 51.3ZM37.8915 49.4937L37.8851 44.2119C37.8832 42.5991 38.1721 41.6802 38.8823 41.04C39.1829 40.769 39.5457 40.4632 39.9658 40.1093C41.1765 39.0888 42.6804 37.8214 43.9514 36.3291C44.3959 35.9562 45.0028 35.9546 45.3798 36.3316C45.781 36.7327 45.7815 37.21 45.3832 37.7502C44.7535 38.4579 44.0916 39.099 43.3911 39.7768C43.0549 40.1023 42.7071 40.4388 42.3563 40.7897C42.2828 40.8632 42.2244 40.9505 42.1847 41.0465C42.1449 41.1426 42.1244 41.2456 42.1244 41.3496C42.1244 41.4535 42.1449 41.5565 42.1847 41.6526C42.2245 41.7486 42.2829 41.8359 42.3564 41.9094C42.511 42.064 42.7135 42.1413 42.9162 42.1413C43.1189 42.1413 43.3216 42.064 43.4761 41.9093C43.8177 41.5677 44.1607 41.2358 44.4924 40.9148C45.2243 40.2066 45.9155 39.5377 46.5926 38.7738C46.5961 38.7697 47.1229 38.1254 47.1229 38.1254C47.9158 37.1492 48.2991 36.0968 48.2946 34.9082L48.2664 27.5135C48.259 25.5536 48.8033 24.3273 49.6867 24.3131L49.7028 24.313C50.2908 24.313 50.9212 24.8272 50.9352 25.3229L51.3208 38.9357C51.3495 39.9508 50.9896 40.8399 50.2511 41.5782L44.0939 47.7355C43.9454 47.884 43.862 48.0853 43.862 48.2953V49.545L37.8915 49.4937ZM36.2228 52.0109C36.253 51.9316 36.2987 51.8591 36.3571 51.7976C36.4156 51.7361 36.4857 51.6868 36.5634 51.6527C36.6411 51.6186 36.7248 51.6002 36.8096 51.5987C36.8945 51.5972 36.9788 51.6125 37.0576 51.6439C37.1365 51.6753 37.2083 51.722 37.2689 51.7813C37.3296 51.8407 37.3778 51.9115 37.4108 51.9897C37.4438 52.0679 37.4609 52.1518 37.4612 52.2367C37.4615 52.3215 37.4449 52.4056 37.4124 52.484C37.348 52.6393 37.225 52.7631 37.0701 52.8285C36.9152 52.894 36.7407 52.8958 36.5845 52.8337C36.4282 52.7715 36.3026 52.6504 36.235 52.4964C36.1673 52.3424 36.1629 52.168 36.2228 52.0109ZM27.5096 49.972C27.3478 49.812 27.1559 49.6857 26.945 49.6002C26.7341 49.5148 26.5084 49.472 26.2809 49.4743L25.5981 49.4802L25.6045 44.2139C25.6062 42.742 25.427 41.0741 24.084 39.8637C23.7639 39.575 23.3737 39.2464 22.9607 38.8984C21.7831 37.9058 20.3174 36.6706 19.1246 35.2603C19.1016 35.2331 19.0768 35.2075 19.0503 35.1836C17.9838 34.2222 16.3832 34.2347 15.4064 35.2118C15.3437 35.2743 15.2839 35.3396 15.2271 35.4075C15.2048 35.2441 15.1941 35.0792 15.1951 34.9143L15.2233 27.5195C15.2399 23.1196 12.9477 22.741 12.2446 22.7296C12.2308 22.7294 12.2171 22.7293 12.2033 22.7293C10.7622 22.7293 9.42573 23.9339 9.38782 25.278L9.0022 38.891C8.96132 40.3381 9.49135 41.6545 10.535 42.6981L16.4603 48.6235V49.5588L15.5799 49.5663C15.1182 49.5702 14.6849 49.7544 14.36 50.085C14.0351 50.4156 13.8583 50.852 13.8622 51.3138L13.88 53.3737C13.8839 53.8354 14.0681 54.2687 14.3987 54.5936C14.7256 54.915 15.156 55.0915 15.6122 55.0915L15.6273 55.0914L26.3285 54.9994C26.7902 54.9955 27.2236 54.8113 27.5484 54.4807C27.8734 54.1501 28.0501 53.7137 28.0462 53.252L28.0285 51.192C28.0246 50.7303 27.8402 50.2969 27.5096 49.972ZM18.044 48.2953C18.044 48.1913 18.0235 48.0884 17.9837 47.9923C17.9439 47.8963 17.8856 47.809 17.8121 47.7355L11.6547 41.5781C10.9163 40.8398 10.5565 39.9508 10.5852 38.9357L10.9708 25.3228C10.9849 24.8225 11.6308 24.3045 12.2192 24.3131C13.1027 24.3273 13.647 25.5536 13.6395 27.5134L13.6113 34.9082C13.6069 36.0968 13.9901 37.1491 14.7844 38.127L15.2928 38.7494C15.2962 38.7537 15.3099 38.7697 15.3135 38.7738C15.9906 39.5377 16.6817 40.2066 17.4136 40.9148C17.7454 41.2359 18.0882 41.5677 18.4299 41.9093C18.5033 41.983 18.5906 42.0414 18.6867 42.0812C18.7828 42.121 18.8858 42.1414 18.9898 42.1413C19.0938 42.1415 19.1968 42.121 19.2929 42.0812C19.389 42.0414 19.4762 41.983 19.5496 41.9094C19.6232 41.8359 19.6815 41.7486 19.7213 41.6526C19.7611 41.5565 19.7816 41.4535 19.7816 41.3496C19.7816 41.2456 19.7612 41.1426 19.7214 41.0465C19.6816 40.9505 19.6233 40.8632 19.5497 40.7897C19.199 40.4389 18.8512 40.1023 18.5149 39.7768C17.8145 39.0989 17.1525 38.4579 16.5229 37.7502C16.1246 37.2101 16.125 36.7328 16.5263 36.3317C16.9035 35.9546 17.5101 35.9562 17.9547 36.3291C19.2256 37.8215 20.7295 39.0889 21.9404 40.1094C22.3603 40.4634 22.7231 40.7691 23.0238 41.0402C23.734 41.6802 24.0229 42.5992 24.0209 44.212L24.0146 49.4938L18.0441 49.5451L18.044 48.2953ZM26.4191 53.3705C26.4056 53.3847 26.3895 53.3959 26.3716 53.4037C26.3537 53.4115 26.3344 53.4156 26.3149 53.4159L15.6138 53.5078C15.5943 53.508 15.5749 53.5042 15.5569 53.4967C15.5389 53.4892 15.5225 53.4782 15.5089 53.4643C15.4947 53.4508 15.4834 53.4347 15.4756 53.4167C15.4678 53.3988 15.4637 53.3796 15.4635 53.36L15.4458 51.3001C15.4453 51.2504 15.4692 51.2156 15.4893 51.1952C15.5093 51.1748 15.5438 51.1502 15.5934 51.1498L26.2944 51.0579H26.2959C26.3448 51.0579 26.3793 51.0816 26.3995 51.1014C26.4199 51.1215 26.4444 51.156 26.4448 51.2057L26.4625 53.2656C26.463 53.3153 26.4392 53.35 26.4191 53.3705ZM25.6832 52.0109C25.7149 52.0891 25.7308 52.1728 25.7301 52.2572C25.7293 52.3417 25.7118 52.4251 25.6787 52.5027C25.6455 52.5804 25.5974 52.6507 25.5369 52.7097C25.4765 52.7686 25.405 52.815 25.3266 52.8462C25.2481 52.8774 25.1643 52.8928 25.0799 52.8915C24.9954 52.8901 24.9121 52.8721 24.8347 52.8384C24.7573 52.8048 24.6873 52.7561 24.6288 52.6953C24.5702 52.6344 24.5243 52.5626 24.4936 52.484C24.4322 52.3265 24.4356 52.1512 24.503 51.9962C24.5704 51.8412 24.6964 51.7191 24.8534 51.6567C25.0105 51.5942 25.1859 51.5964 25.3413 51.6627C25.4967 51.7291 25.6196 51.8542 25.6832 52.0109Z" fill="white"></path>
</svg>
