<?xml version="1.0" encoding="UTF-8"?>
<svg xmlns="http://www.w3.org/2000/svg" width="61" height="61" viewBox="0 0 61 61" fill="none">
  <rect width="61" height="61" fill="#A4119A"></rect>
  <path d="M30.4996 19.6742C28.5737 19.6732 26.6824 20.1864 25.021 21.1606C23.3596 22.1348 21.9884 23.5348 21.0489 25.216C20.1093 26.8972 19.6356 28.7988 19.6765 30.7243C19.7174 32.6498 20.2715 34.5295 21.2816 36.1693C21.3012 36.2078 21.3245 36.2443 21.3513 36.2783C22.2127 37.6359 23.3637 38.7863 24.7218 39.6469C24.7549 39.6734 24.7907 39.6964 24.8285 39.7155C26.2536 40.5935 27.8628 41.1291 29.5298 41.2803C31.1968 41.4314 32.8762 41.1939 34.4359 40.5864C35.9956 39.9789 37.3932 39.018 38.5188 37.7792C39.6445 36.5404 40.4675 35.0574 40.9233 33.4468C41.379 31.8362 41.4551 30.1418 41.1455 28.4969C40.8358 26.8519 40.149 25.3012 39.1388 23.9665C38.1287 22.6318 36.8228 21.5496 35.3238 20.8048C33.8248 20.06 32.1735 19.673 30.4996 19.6742ZM22.7248 35.9516L24.7687 33.9077C24.8654 33.8111 24.9297 33.687 24.9531 33.5523C24.9764 33.4177 24.9575 33.2791 24.8989 33.1556C24.3844 32.0747 24.1941 30.8677 24.3511 29.6809C24.508 28.494 25.0054 27.378 25.7832 26.4679C26.5609 25.5577 27.5857 24.8924 28.7336 24.5524C29.8815 24.2124 31.1033 24.2122 32.2513 24.5519L28.4016 28.4017C28.3401 28.4631 28.2913 28.5361 28.2581 28.6165C28.2248 28.6968 28.2077 28.7829 28.2078 28.8699V32.1288C28.2078 32.3044 28.2776 32.4729 28.4018 32.5971C28.526 32.7214 28.6945 32.7912 28.8702 32.7912H32.1295C32.2164 32.7912 32.3025 32.774 32.3829 32.7407C32.4632 32.7074 32.5362 32.6585 32.5977 32.597L36.447 28.748C36.7871 29.8962 36.7872 31.1183 36.4472 32.2665C36.1072 33.4147 35.4418 34.4398 34.5315 35.2177C33.6211 35.9957 32.5048 36.4931 31.3176 36.6499C30.1304 36.8067 28.9233 36.6161 27.8422 36.1011C27.7187 36.0423 27.5801 36.0233 27.4454 36.0466C27.3107 36.0699 27.1866 36.1345 27.0901 36.2313L25.0462 38.2753C24.1445 37.64 23.3592 36.854 22.7248 35.9516ZM30.4996 39.9997C29.0117 40.0012 27.5445 39.651 26.2176 38.9778L27.7078 37.4872C29.1123 38.0504 30.6541 38.1767 32.1316 37.8498C33.6091 37.5229 34.9536 36.758 35.9895 35.6549C37.0254 34.5518 37.7044 33.1619 37.9379 31.6668C38.1714 30.1717 37.9485 28.6409 37.2983 27.2745C37.2529 27.1786 37.1851 27.095 37.1006 27.0308C37.0161 26.9665 36.9174 26.9235 36.8129 26.9054C36.7083 26.8873 36.6009 26.8946 36.4998 26.9267C36.3986 26.9588 36.3067 27.0147 36.2316 27.0898L31.855 31.4664H29.5326V29.1443L33.9092 24.7673C33.9842 24.6923 34.0402 24.6003 34.0722 24.4992C34.1043 24.398 34.1116 24.2906 34.0935 24.1861C34.0754 24.0815 34.0324 23.9828 33.9682 23.8984C33.904 23.8139 33.8204 23.7461 33.7245 23.7007C32.358 23.0505 30.8273 22.8276 29.3322 23.0611C27.8371 23.2946 26.4472 23.9736 25.3441 25.0095C24.241 26.0454 23.476 27.3899 23.1491 28.8674C22.8222 30.3449 22.9486 31.8866 23.5117 33.2912L22.0212 34.7817C21.0887 32.9351 20.7845 30.8346 21.1546 28.7993C21.5248 26.764 22.5492 24.9051 24.0722 23.5051C25.5952 22.1051 27.5335 21.2405 29.5927 21.0425C31.6519 20.8446 33.7194 21.3242 35.4812 22.4085C37.2429 23.4927 38.6027 25.1224 39.3537 27.05C40.1048 28.9775 40.2063 31.0975 39.6426 33.0879C39.079 35.0783 37.881 36.8304 36.2308 38.0779C34.5806 39.3254 32.5683 40.0002 30.4996 39.9997Z" fill="white"></path>
  <path d="M52.3365 26.2097H48.0655C47.6284 24.4115 46.915 22.6919 45.9508 21.1124L48.9739 18.0897C49.098 17.9654 49.1678 17.797 49.1678 17.6213C49.1678 17.4457 49.098 17.2772 48.9739 17.1529L43.8444 12.025C43.7179 11.9052 43.5503 11.8384 43.376 11.8384C43.2018 11.8384 43.0342 11.9052 42.9076 12.025L39.8865 15.0477C38.3069 14.0836 36.5873 13.3702 34.7892 12.933V8.66238C34.7892 8.57538 34.7721 8.48922 34.7389 8.40884C34.7056 8.32845 34.6568 8.25541 34.5953 8.19389C34.5338 8.13238 34.4607 8.08359 34.3803 8.05032C34.3 8.01705 34.2138 7.99995 34.1268 8H26.8724C26.6968 8 26.5283 8.06979 26.4041 8.19401C26.2799 8.31823 26.2101 8.4867 26.2101 8.66238V12.933C24.4119 13.3702 22.6924 14.0836 21.1128 15.0477L18.0901 12.025C18.0286 11.9634 17.9556 11.9146 17.8752 11.8813C17.7948 11.8479 17.7087 11.8308 17.6217 11.8308C17.5347 11.8308 17.4485 11.8479 17.3682 11.8813C17.2878 11.9146 17.2148 11.9634 17.1533 12.025L12.0254 17.1544C11.9638 17.2159 11.915 17.2889 11.8816 17.3693C11.8483 17.4497 11.8312 17.5358 11.8312 17.6228C11.8312 17.7098 11.8483 17.796 11.8816 17.8764C11.915 17.9567 11.9638 18.0297 12.0254 18.0912L15.0481 21.1124C14.084 22.692 13.3706 24.4115 12.9334 26.2097H8.66238C8.48673 26.2098 8.31831 26.2796 8.19412 26.4038C8.06992 26.528 8.0001 26.6964 8 26.8721V34.1264C8.0001 34.3021 8.06992 34.4705 8.19412 34.5947C8.31831 34.7189 8.48673 34.7887 8.66238 34.7888H12.9334C13.3706 36.587 14.084 38.3065 15.0481 39.8861L12.0254 42.9088C11.9638 42.9703 11.915 43.0433 11.8816 43.1237C11.8483 43.204 11.8312 43.2902 11.8312 43.3772C11.8312 43.4642 11.8483 43.5503 11.8816 43.6307C11.915 43.7111 11.9638 43.7841 12.0254 43.8456L17.1548 48.975C17.2163 49.0366 17.2893 49.0854 17.3697 49.1187C17.45 49.1521 17.5362 49.1692 17.6232 49.1692C17.7102 49.1692 17.7964 49.1521 17.8767 49.1187C17.9571 49.0854 18.0301 49.0366 18.0916 48.975L21.1143 45.9523C22.6934 46.9163 24.4124 47.6296 26.2101 48.0666V52.3376C26.2101 52.5133 26.2799 52.6818 26.4041 52.806C26.5283 52.9302 26.6968 53 26.8724 53H34.1268C34.2138 53.0001 34.3 52.983 34.3803 52.9497C34.4607 52.9164 34.5338 52.8676 34.5953 52.8061C34.6568 52.7446 34.7056 52.6716 34.7389 52.5912C34.7721 52.5108 34.7892 52.4246 34.7892 52.3376V48.0651C36.5874 47.6281 38.3069 46.9149 39.8865 45.9508L42.9092 48.9735C43.0357 49.0933 43.2033 49.1601 43.3776 49.1601C43.5518 49.1601 43.7194 49.0933 43.846 48.9735L48.9754 43.8441C49.0995 43.7198 49.1693 43.5513 49.1693 43.3757C49.1693 43.2 49.0995 43.0315 48.9754 42.9073L45.9508 39.8861C46.9149 38.307 47.6283 36.588 48.0655 34.7903H52.3365C52.5122 34.7903 52.6806 34.7205 52.8049 34.5963C52.9291 34.4721 52.9989 34.3036 52.9989 34.1279V26.8721C52.9989 26.6964 52.9291 26.5279 52.8049 26.4037C52.6806 26.2795 52.5122 26.2097 52.3365 26.2097ZM51.6741 33.464H47.5371C47.3852 33.4639 47.2379 33.516 47.1198 33.6115C47.0018 33.7071 46.9202 33.8404 46.8887 33.989C46.4643 35.9934 45.6725 37.9019 44.5534 39.6181C44.4705 39.7453 44.4338 39.8971 44.4496 40.0481C44.4654 40.1991 44.5326 40.3401 44.64 40.4474L47.57 43.3759L43.3759 47.5696L40.4478 44.6416C40.3405 44.5341 40.1996 44.4668 40.0486 44.4509C39.8976 44.4351 39.7457 44.4717 39.6185 44.5545C37.9024 45.6736 35.994 46.4654 33.9898 46.8899C33.8412 46.9212 33.7078 47.0027 33.6122 47.1207C33.5165 47.2387 33.4644 47.386 33.4644 47.5379V51.6749H27.5348V47.5379C27.5352 47.3858 27.4832 47.2382 27.3876 47.1199C27.292 47.0017 27.1586 46.9199 27.0098 46.8883C25.0054 46.464 23.0969 45.6722 21.3808 44.553C21.2535 44.4703 21.1017 44.4338 20.9507 44.4497C20.7997 44.4655 20.6588 44.5327 20.5515 44.64L17.623 47.5696L13.4292 43.3759L16.3573 40.4474C16.4648 40.3401 16.5321 40.1992 16.5479 40.0482C16.5638 39.8972 16.5272 39.7453 16.4444 39.6181C15.3256 37.9019 14.5344 35.9933 14.1105 33.989C14.0789 33.8406 13.9973 33.7075 13.8794 33.6119C13.7614 33.5164 13.6143 33.4642 13.4625 33.464H9.32475V27.5344H13.4621C13.614 27.5344 13.7612 27.4822 13.8792 27.3867C13.9972 27.2911 14.0789 27.158 14.1105 27.0095C14.5348 25.005 15.3266 23.0965 16.4459 21.3804C16.5287 21.2532 16.5653 21.1013 16.5494 20.9503C16.5336 20.7993 16.4663 20.6584 16.3588 20.5511L13.4292 17.6226L17.623 13.4288L20.5515 16.3569C20.6587 16.4644 20.7997 16.5317 20.9507 16.5475C21.1017 16.5634 21.2535 16.5268 21.3808 16.444C23.0971 15.3254 25.0056 14.5342 27.0098 14.1101C27.1583 14.0786 27.2915 13.997 27.387 13.8791C27.4826 13.7611 27.5348 13.6139 27.5348 13.4622V9.32475H33.4644V13.4618C33.4643 13.6137 33.5165 13.761 33.6122 13.8791C33.7078 13.9971 33.8411 14.0787 33.9898 14.1101C35.994 14.5347 37.9024 15.3265 39.6185 16.4455C39.7458 16.5282 39.8976 16.5647 40.0485 16.5488C40.1995 16.533 40.3404 16.4658 40.4478 16.3584L43.3759 13.4288L47.57 17.6226L44.6416 20.5511C44.5342 20.6584 44.4669 20.7994 44.4511 20.9504C44.4354 21.1014 44.472 21.2532 44.5549 21.3804C45.6735 23.0967 46.4647 25.0052 46.8887 27.0095C46.9201 27.158 47.0017 27.2912 47.1197 27.3868C47.2376 27.4824 47.3849 27.5345 47.5367 27.5344H51.6737L51.6741 33.464Z" fill="white"></path>
</svg>
