<?xml version="1.0" encoding="UTF-8"?>
<svg xmlns="http://www.w3.org/2000/svg" width="61" height="61" viewBox="0 0 61 61" fill="none">
  <rect width="61" height="61" fill="#A4119A"></rect>
  <path d="M33.8568 42.983C33.6385 42.9339 33.3874 42.8465 33.1963 42.7537C33.008 42.6636 32.9479 42.6172 32.7896 42.4371C32.5467 42.1587 32.4948 42.0386 32.5112 41.7984C32.5221 41.651 32.5522 41.5582 32.6668 41.318C32.7432 41.1542 32.806 41.0096 32.806 40.9959C32.806 40.9795 32.7678 40.9523 32.7187 40.9304C32.5986 40.8758 32.4211 40.7121 32.3802 40.6138C32.3611 40.5674 32.3311 40.4036 32.3147 40.248C32.2656 39.7922 32.3256 39.4374 32.5194 39.0716C32.6177 38.886 32.8824 38.2692 32.9152 38.1463C32.9316 38.0863 32.9616 37.8352 32.9834 37.5923C33.038 36.9809 33.1035 36.6369 33.3219 35.8099C33.4229 35.4196 33.5621 34.8819 33.6248 34.6171C33.7367 34.1558 33.7395 34.1285 33.6958 34.063C33.6439 33.9839 33.6521 33.9839 33.1199 34.0357C32.8961 34.0576 32.5576 34.0767 32.3693 34.0767C31.7934 34.0767 30.6743 34.0221 30.4586 33.9811C30.0601 33.9047 28.7964 33.4434 28.1659 33.1459C27.7592 32.9549 27.3852 32.8293 27.1369 32.802C26.8721 32.772 26.7029 32.9221 26.3071 33.5444C26.1843 33.7409 26.0614 33.9484 26.0341 34.0084C25.955 34.1913 25.8513 34.6198 25.8049 34.9556C25.7557 35.3131 25.6111 35.9109 25.5046 36.1948C25.4118 36.4431 25.1743 36.888 24.9451 37.2429C24.6612 37.6823 24.593 37.9471 24.694 38.231C24.8059 38.5476 25.1552 38.9625 25.5647 39.2682C25.652 39.3309 25.8649 39.5029 26.0396 39.6476C26.5364 40.057 26.6701 40.1389 27.0086 40.2344C27.1369 40.2699 27.3061 40.2808 27.8383 40.2835C28.4607 40.2863 28.5152 40.2917 28.6353 40.3463C28.9056 40.4691 29.2167 40.854 29.3368 41.2197C29.4869 41.6646 29.345 42.1096 29.012 42.2488C28.8455 42.317 28.4661 42.377 28.084 42.3907C27.882 42.3989 27.4098 42.4507 27.0331 42.5026C25.925 42.6609 25.2535 42.6418 24.8987 42.4398C24.8359 42.4043 24.7131 42.2924 24.6257 42.1914C24.2763 41.7847 24.0907 41.6374 23.6213 41.3944C23.3128 41.2361 22.7888 40.8758 22.5022 40.6274C22.3957 40.5374 22.09 40.2781 21.8198 40.0488C20.9628 39.3255 20.8536 39.219 20.5015 38.7414C20.2531 38.4056 20.2312 38.1764 20.3459 37.0655C20.4223 36.334 20.4278 36.1211 20.3841 35.7116C20.335 35.2203 20.2886 35.0456 20.1057 34.6826C20.0129 34.497 19.9037 34.3087 19.8628 34.2596L19.7891 34.1722L19.6035 34.3524C19.5025 34.4533 19.3796 34.5543 19.3305 34.5789C19.1804 34.6553 18.771 34.759 18.4216 34.8136C17.7774 34.9146 17.6683 34.9583 17.3298 35.2722C17.1879 35.4005 17.0923 35.5206 17.0186 35.6516C16.7129 36.2111 16.3117 36.5196 15.4683 36.8362C14.7805 37.0982 14.6658 37.1719 14.4065 37.5186C14.1745 37.8325 14.0026 38.1436 13.9316 38.3756C13.8934 38.4957 13.7897 38.9324 13.6969 39.3419C13.5686 39.9205 13.5358 40.1198 13.5495 40.2098C13.5577 40.2753 13.574 40.3272 13.5849 40.3272C13.5959 40.3272 13.7023 40.2944 13.8224 40.2535C14.3165 40.0925 14.8078 40.1935 15.3264 40.5619C15.5584 40.7257 15.703 40.9004 15.8368 41.1733L15.9514 41.4053V41.7738C15.9514 42.3088 15.8968 42.4426 15.5911 42.6391C15.4192 42.7483 15.2363 42.7947 14.6959 42.8656C13.6859 42.9966 12.7661 42.9966 12.2257 42.8629C11.8545 42.7728 11.7999 42.7264 11.617 42.3607C11.4914 42.1068 11.4559 41.984 11.3249 41.3944C11.1966 40.8103 11.0056 40.3163 10.8172 40.0679C10.7163 39.9314 10.5634 39.5875 10.5307 39.4156C10.5115 39.3036 10.5115 39.1863 10.5307 39.0198C10.5443 38.8915 10.5716 38.6622 10.588 38.5121C10.6016 38.362 10.6344 38.0726 10.6562 37.8707C10.7135 37.3439 10.7108 37.2729 10.5852 36.7898C10.487 36.4022 10.4761 36.3312 10.4897 36.132C10.5061 35.8727 10.5825 35.6953 10.7436 35.537C10.8691 35.4141 10.9455 35.3732 11.3932 35.1958C11.5842 35.1193 11.7971 35.0265 11.8708 34.9911L11.9991 34.9255L12.0155 34.3578C12.0346 33.569 12.1274 33.1268 12.354 32.7119C12.5259 32.3953 12.545 32.3516 12.8098 31.6338C13.4403 29.936 13.4239 29.9715 14.1663 28.8088C15.0561 27.4167 15.1872 27.1902 15.4601 26.5597C15.5993 26.243 15.744 25.9182 15.7849 25.8418C15.8477 25.7135 15.8504 25.6972 15.8095 25.6972C15.7822 25.6972 15.048 25.7163 14.1772 25.7381C13.3065 25.7599 11.9363 25.7845 11.1339 25.7927C9.18775 25.8145 8.93663 25.8391 8.16146 26.0957C6.92227 26.4996 5.76497 27.3485 5.09079 28.3393C4.67863 28.948 4.43571 29.6904 4.48484 30.2117C4.57218 31.167 5.18086 31.9722 6.34362 32.671L6.62476 32.8402L7.00689 32.8593C7.64013 32.8893 8.07685 32.9849 8.43987 33.165C8.6091 33.2496 9.20139 33.6673 9.5726 33.9648C10.0912 34.3796 10.5143 34.8 10.7163 35.103C10.79 35.2149 10.8091 35.2667 10.8009 35.3486C10.7927 35.4496 10.7845 35.4605 10.6153 35.5424C10.2413 35.7253 9.72273 35.8372 9.04854 35.8809C7.66742 35.9709 6.4992 35.6216 6.027 34.9801C5.87688 34.7754 5.83048 34.6526 5.78408 34.3223L5.75132 34.0903L5.32552 33.8856C4.75779 33.6127 4.31561 33.3179 4.07815 33.0586C3.59503 32.5263 3.21563 31.8385 3.05459 31.2162C3.00546 31.0169 3 30.9132 3 30.078C3 29.2482 3.00546 29.139 3.05459 28.9452C3.18833 28.4212 3.45855 27.8234 3.76699 27.3621C4.40023 26.4232 5.2955 25.6535 6.38729 25.113C7.36172 24.6272 7.96494 24.4689 9.83736 24.1987C11.0929 24.0158 11.9991 23.9339 13.1127 23.8957C14.0408 23.8629 14.7832 23.7865 15.7767 23.62C16.2162 23.5463 16.4919 23.4863 16.6502 23.4289C17.8266 22.9922 19.5516 22.4736 20.395 22.3017C21.2439 22.127 21.626 22.0997 22.5022 22.1597C23.5257 22.2252 24.7868 22.2853 26.5555 22.3453C27.8492 22.389 31.3976 22.389 32.4102 22.3453C35.8412 22.1952 37.7873 21.8977 38.9146 21.3491C39.2339 21.1935 39.7798 20.7568 40.7406 19.8915C40.9999 19.6568 41.2947 19.4002 41.3957 19.3183C41.614 19.1437 41.9525 18.9744 42.1818 18.9253C42.4056 18.8762 43.1562 18.8816 43.6011 18.9389C44.521 19.0509 44.8703 18.9772 46.1068 18.3985C46.448 18.2402 46.7864 18.1174 47.0812 18.0519C47.2941 18.0055 47.4415 18 48.8308 18C50.2965 18 50.3539 18.0027 50.5231 18.0573C50.8998 18.1801 51.2137 18.4067 51.3338 18.6442C51.3829 18.7397 51.4156 18.7643 51.5821 18.8298C51.9916 18.9908 52.4883 19.3456 52.7285 19.6486C52.8977 19.8642 52.9824 20.0116 53.0806 20.2682C53.1843 20.5384 53.329 20.7541 53.5556 20.9806C53.8394 21.2617 54.3253 21.562 54.7647 21.7257C54.9176 21.7831 54.9285 21.794 54.9367 21.8841L54.9449 21.9796L54.6828 22.0669L54.4235 22.1543L54.5272 22.2307C54.8411 22.4573 55.095 22.9267 55.2042 23.4726L55.2533 23.7183L55.7009 24.3461C56.3287 25.2222 56.4898 25.4215 57.0766 26.0138L57.5897 26.5324V27.0646V27.5969L57.5051 27.7333C57.2649 28.1155 56.8528 28.4021 56.2441 28.6041C55.9984 28.6859 55.9111 28.6996 55.5017 28.7269C54.5218 28.7897 53.7029 28.8879 53.4819 28.9725C53.4054 29.0026 53.3072 29.1854 53.3044 29.3028C53.3044 29.341 53.3317 29.3983 53.3699 29.4338C53.5146 29.5703 53.7794 29.5239 53.9732 29.3274C54.1151 29.1827 54.1997 29.1827 54.4863 29.3328C54.7947 29.4939 55.0049 29.704 55.0513 29.8978C55.1032 30.1217 55.0704 30.3018 54.9203 30.5884L54.792 30.8368L54.7784 31.3991C54.762 32.035 54.7511 32.0787 54.5573 32.2206C54.3799 32.3489 54.1997 32.3953 53.8913 32.3953C53.4709 32.3926 53.0315 32.3462 53.0042 32.2998C52.966 32.2425 52.9223 32.0159 52.9223 31.8904C52.9223 31.8003 52.9059 31.7621 52.8377 31.6993C52.7886 31.6556 52.7476 31.6229 52.7449 31.6256C52.7394 31.6311 52.7476 31.7075 52.764 31.7976C52.7995 32.0214 52.7749 32.3271 52.7094 32.4554C52.6466 32.5809 52.3928 32.8238 51.9916 33.1514C51.6531 33.4271 51.5821 33.5417 51.563 33.8392L51.5521 34.0221H51.4566C51.3883 34.0221 51.3201 33.9921 51.23 33.9266C50.9898 33.7491 50.8779 33.599 50.6787 33.1787C50.575 32.9603 50.4767 32.7638 50.4603 32.7474C50.4412 32.7229 50.3975 32.772 50.302 32.933C50.0236 33.3916 49.6114 33.8665 49.1447 34.2568C48.9018 34.4615 48.8581 34.4861 48.7735 34.4806C48.678 34.4725 48.678 34.4725 48.6234 34.2596L48.5661 34.0439L48.476 34.2787C48.3013 34.7454 47.8564 35.2777 47.3896 35.5861C47.2586 35.6734 47.1904 35.7362 47.1904 35.769C47.1904 35.9327 47.4087 37.2975 47.4961 37.666C47.5807 38.0317 47.6326 38.1463 47.911 38.5503C48.4623 39.3555 48.6916 39.8113 48.6916 40.1088V40.2071L49.0546 40.2399C49.4832 40.2808 49.8107 40.349 50.0645 40.4528C50.2228 40.5183 50.2611 40.5483 50.3457 40.6738C50.4658 40.8567 50.6104 41.1733 50.7142 41.4763C50.7797 41.6728 50.7933 41.7575 50.7933 41.9758C50.7933 42.3689 50.7087 42.4999 50.3484 42.6718C50.0591 42.8083 49.9253 42.8247 49.101 42.822C48.2085 42.8192 47.3951 42.7564 47.1194 42.6718C46.8847 42.5981 46.65 42.4808 46.5708 42.3962C46.4971 42.3197 46.407 42.1041 46.2487 41.6374L46.1341 41.2962L45.9184 41.1406C45.8011 41.0532 45.539 40.8704 45.3398 40.7339C44.8922 40.4282 44.7748 40.2753 44.5674 39.7322C44.5073 39.5766 44.4691 39.5329 44.1115 39.2054C43.8959 39.0061 43.6175 38.7223 43.4947 38.5694C43.0361 38.0099 42.523 37.2647 42.3865 36.9536C42.1381 36.394 41.9334 36.1293 41.6277 35.9655C41.4803 35.8863 41.453 35.8809 41.2783 35.8972C41.0545 35.9136 40.6778 35.8727 40.3803 35.7935C39.9081 35.6734 39.4496 35.3759 38.9992 34.901L38.7426 34.6335L38.5789 34.8382C38.0794 35.4578 37.5662 36.2412 37.2605 36.8471C37.1786 37.0136 36.9985 37.3002 36.862 37.4885C35.934 38.7741 35.6993 39.1617 35.5136 39.7185C35.4427 39.9287 35.3308 40.4364 35.3526 40.45C35.3553 40.4528 35.4208 40.4773 35.5 40.5019C35.6993 40.5674 35.8494 40.6875 35.9449 40.854L36.0268 41.0014L36.3161 41.0778C36.6737 41.1733 36.9466 41.3016 37.0503 41.4217C37.1677 41.5609 37.2905 41.8475 37.3042 42.0086C37.3233 42.2406 37.2933 42.3306 37.1404 42.4971C36.9193 42.7401 36.7665 42.7974 36.035 42.9202C35.5573 42.9994 35.5082 43.0021 34.7248 42.9994C34.2772 42.9966 33.8869 42.9912 33.8568 42.983ZM24.9751 30.0916H25.1634V28.1346C25.1634 26.2867 25.1607 26.1694 25.1116 26.0629C25.0515 25.9346 24.9505 25.8445 24.8113 25.8036C24.7513 25.7872 24.4947 25.779 24.1399 25.7845C23.5012 25.7927 23.4657 25.8009 23.3238 25.9783L23.2391 26.0847L23.231 28.0882L23.2255 30.0916H23.5257H23.826V29.4365V28.7815H24.1781C24.5193 28.7815 24.5302 28.7842 24.5466 28.8443C24.5766 28.9589 24.5657 29.704 24.5329 29.715C24.5084 29.7231 24.5084 29.7395 24.5329 29.7832C24.5493 29.8159 24.5629 29.8978 24.5629 29.9661C24.5629 30.078 24.5684 30.0889 24.6394 30.0998C24.6803 30.1053 24.7294 30.1053 24.7485 30.0998C24.7704 30.0971 24.8714 30.0916 24.9751 30.0916ZM20.4141 29.038V27.9872L20.5151 27.9954L20.6134 28.0036L20.7444 28.5031C20.8181 28.7787 20.8836 29.0162 20.8918 29.0299C20.9191 29.0708 21.4131 29.0599 21.4568 29.0189C21.4759 28.9971 21.5523 28.7514 21.626 28.473L21.7598 27.9626H21.8526H21.9426V29.0271V30.0916H22.2429H22.5431V27.9353V25.779H22.2429C22.0791 25.779 21.9426 25.7845 21.9426 25.7927C21.9426 25.7981 21.8526 26.0902 21.7407 26.4396C21.6315 26.7889 21.4814 27.2639 21.4077 27.4932L21.2766 27.9108L21.1811 27.9026L21.0856 27.8944L20.9382 27.4304C20.859 27.1765 20.7062 26.6989 20.6025 26.3741L20.4114 25.779H20.1139H19.8136V27.9353V30.0916H20.1139H20.4141V29.038ZM26.3917 29.1636V28.2356H26.4982C26.5582 28.2356 26.6155 28.2492 26.6237 28.2629C26.6346 28.2792 26.7684 28.6941 26.9212 29.1854L27.1996 30.078L27.478 30.0862C27.6309 30.0889 27.7564 30.0862 27.7564 30.0807C27.7564 30.0725 27.6091 29.6058 27.4289 29.0435C27.2488 28.4812 27.1014 27.9817 27.1014 27.9381C27.1014 27.8917 27.1669 27.6487 27.2488 27.3976C27.549 26.4723 27.7564 25.8172 27.7564 25.7981C27.7564 25.7872 27.6309 25.7818 27.478 25.7845L27.1969 25.7927L26.9076 26.7071L26.6155 27.6214L26.5036 27.6296L26.3917 27.6378V26.7098V25.779H26.0915H25.7912V27.9353V30.0916H26.0915H26.3917V29.1636ZM30.1584 29.7914V29.4911H29.4897H28.8209V28.8634V28.2356H29.3532H29.8854V27.9353V27.6351H29.3532H28.8209V27.0073V26.3795H29.4897H30.1584V26.0793V25.779H29.1894H28.2205V27.9353V30.0916H29.1894H30.1584V29.7914ZM32.3693 27.9353V25.779H32.069H31.7688V27.9353V30.0916H32.069H32.3693V27.9353ZM33.5703 29.1472V28.2056L33.6685 28.2137L33.7695 28.2219L33.9824 28.9725C34.0998 29.3847 34.2226 29.805 34.2526 29.9088L34.3099 30.0916H34.6075H34.9077V27.9353V25.779H34.6075H34.3072V26.6661V27.5532H34.2117H34.1189L34.0479 27.3239C34.0097 27.1984 33.8869 26.8026 33.7777 26.4423L33.5784 25.7927L33.2727 25.7845L32.9698 25.7763V27.9353V30.0916H33.27H33.5703V29.1472ZM37.2824 27.9353V25.779H36.9821H36.6819V27.9353V30.0916H36.9821H37.2824V27.9353ZM38.5106 29.1636V28.2356H38.6007H38.6908L38.9146 29.0217C39.0374 29.4529 39.1602 29.8705 39.1821 29.9497L39.2257 30.0916H39.5233H39.8208V27.9353V25.779H39.5205H39.2203V26.6661V27.5532H39.1302H39.0401L38.7672 26.6743L38.497 25.7927H38.1967H37.8965L37.8883 27.9435L37.8828 30.0916H38.1967H38.5106V29.1636ZM42.1872 30.0179C42.2336 29.9824 42.291 29.9552 42.3128 29.9552C42.3783 29.9552 42.3865 29.7504 42.3865 27.8998C42.3865 26.4314 42.381 26.1175 42.3483 26.0574C42.291 25.9455 42.1627 25.8364 42.0562 25.8063C42.0071 25.79 41.6222 25.779 41.2074 25.779H40.4486V27.9353V30.0944L41.2756 30.0862C42.0808 30.078 42.1026 30.0752 42.1872 30.0179ZM43.6748 28.6805C43.6803 27.9026 43.6803 26.9309 43.6748 26.5242L43.6694 25.779H43.3691H43.0689V26.1339C43.0689 26.445 43.0634 26.4887 43.0225 26.4887C42.9815 26.4887 42.9815 26.4914 43.0225 26.5378C43.0634 26.5842 43.0689 26.748 43.0689 28.3393V30.0916H43.3691H43.6694L43.6748 28.6805ZM44.8703 29.4365V28.7815H45.2388H45.6073V29.4365V30.0916H45.9075H46.2078L46.2132 29.6358C46.2187 29.382 46.216 28.4812 46.2078 27.6296L46.1941 26.0847L46.1095 25.9783C45.9676 25.8009 45.9348 25.7927 45.2797 25.7845C44.7994 25.7763 44.6765 25.7845 44.581 25.82C44.45 25.8691 44.3708 25.9483 44.3135 26.0847C44.2671 26.1912 44.2671 26.2567 44.2698 28.8443V30.0916H44.5701H44.8703V29.4365Z" fill="white"></path>
  <path d="M23.8396 28.151C23.8314 28.1291 23.8287 27.7252 23.8314 27.253L23.8396 26.3932H24.1945H24.5493L24.5575 27.2748L24.5629 28.1537H24.3528C24.2354 28.1537 24.0744 28.1619 23.9979 28.1701C23.8888 28.1837 23.8505 28.1783 23.8396 28.151Z" fill="white"></path>
  <path d="M41.0681 29.472C41.0354 29.4393 41.0463 28.4048 41.0791 28.3939C41.1009 28.3857 41.1009 28.353 41.0791 28.2765C41.0572 28.2001 41.049 27.8917 41.0545 27.2803L41.0627 26.3932H41.4175H41.7724L41.7778 27.9435L41.7833 29.4912H41.4339C41.2428 29.4912 41.0763 29.483 41.0681 29.472Z" fill="white"></path>
  <path d="M45.1351 28.1619L44.8703 28.151L44.8758 27.2721L44.884 26.3932H45.2388H45.5936V27.2803V28.1674L45.4981 28.1701C45.4462 28.1701 45.2825 28.1674 45.1351 28.1619Z" fill="white"></path>
  <path d="M45.8338 36.1047C45.8093 36.0856 45.8229 36.0447 45.8966 35.9382C46.3142 35.3159 46.4016 34.6635 46.1559 33.9648C46.1068 33.8228 45.8366 33.176 45.7165 32.9139C45.61 32.6819 45.3043 32.4035 44.278 31.601C43.5765 31.0551 42.987 30.572 42.6512 30.2718C42.4001 30.048 42.3756 30.0316 42.321 30.0643C42.149 30.1735 42.149 30.1735 41.2483 30.1735H40.3667V27.9353V25.6972H40.5577C40.6642 25.6972 40.7488 25.6944 40.7515 25.6917C40.7515 25.6862 40.7706 25.5662 40.7897 25.4242L40.8252 25.1649L40.8116 25.4324L40.7952 25.6972H41.4203C41.7642 25.6972 42.089 25.7081 42.1381 25.7245C42.2446 25.7545 42.3728 25.8664 42.4302 25.9756C42.4629 26.0384 42.4684 26.3577 42.4656 27.9817L42.4629 29.9142L42.7058 30.1299C43.0088 30.4028 43.6066 30.8859 44.3244 31.4455C45.3234 32.2206 45.7028 32.5646 45.8229 32.802C45.9348 33.0258 46.2596 33.8474 46.3224 34.063C46.3743 34.2459 46.3852 34.3469 46.3852 34.6772C46.3852 35.0184 46.377 35.0975 46.3224 35.2613C46.2433 35.4933 46.1532 35.6789 46.014 35.8836C45.9539 35.971 45.9075 36.0501 45.9075 36.0583C45.9075 36.0692 46.014 36.0692 46.1477 36.061C46.3524 36.0474 46.5899 35.9955 46.7946 35.9191C46.8383 35.9054 46.841 35.9054 46.8083 35.93C46.6554 36.0419 45.9294 36.1702 45.8338 36.1047ZM41.7041 29.3847C41.7041 29.3711 41.6768 29.3247 41.6413 29.281C41.524 29.1418 41.3575 28.8797 41.2565 28.6805C41.2019 28.5713 41.1528 28.4812 41.15 28.4812C41.1418 28.4812 41.15 29.382 41.1555 29.4038C41.1637 29.4229 41.7041 29.4038 41.7041 29.3847ZM41.6905 26.4942C41.6823 26.4696 41.6086 26.4614 41.4121 26.4669L41.1446 26.4751V27.3376V28.2001L41.3002 28.5113C41.3848 28.6832 41.5076 28.8961 41.5731 28.9862L41.6905 29.15L41.6987 27.8398C41.7014 27.1192 41.6987 26.5133 41.6905 26.4942Z" fill="#A4119A"></path>
  <path d="M34.2062 35.6844C34.6402 35.1958 34.7084 34.7154 34.5392 33.2715C34.4355 32.3571 34.5474 31.672 34.8531 31.3882L34.9432 31.3063L34.8449 31.4373C34.5993 31.7621 34.5501 32.368 34.6948 33.3316C34.774 33.8665 34.7821 34.6799 34.7084 34.9501C34.632 35.234 34.5147 35.4414 34.329 35.6298C34.0943 35.8645 34.0152 35.9 34.2062 35.6844Z" fill="#A4119A"></path>
  <path d="M39.2885 34.2486C40.1947 33.629 40.7406 33.0968 41.0163 32.57C41.1337 32.3462 41.1446 32.3762 41.0463 32.6464C40.828 33.2332 40.1074 33.9456 39.3759 34.2923C39.0183 34.4615 38.9965 34.4506 39.2885 34.2486Z" fill="#A4119A"></path>
  <path d="M19.9119 33.8364C19.9392 33.7873 20.062 33.6153 20.1794 33.4543C21.3258 31.9039 22.7096 30.9814 23.8751 30.995L24.1399 30.9978L23.8806 31.0332C22.9989 31.1561 22.1364 31.6255 21.162 32.5153C20.8372 32.8101 20.3268 33.356 20.0566 33.6972C19.8819 33.9183 19.8464 33.9511 19.9119 33.8364Z" fill="#A4119A"></path>
  <path d="M48.7162 32.671C48.7025 32.3763 48.6889 32.3162 48.5988 32.0842C48.3177 31.3636 47.8864 30.7304 47.2477 30.0917C46.9666 29.8105 46.3825 29.3001 46.3142 29.2783C46.3006 29.2728 46.2897 29.4557 46.2897 29.7205V30.1736H45.9075H45.5254V29.5185V28.8634H45.2388H44.9522V29.5185V30.1736H44.5701H44.188V28.9398V27.7034L43.9751 27.5369L43.7649 27.3676L43.7567 28.7706L43.7512 30.1736H43.3691H42.987V28.4267V26.6798L42.856 26.5079C42.6076 26.1885 42.4138 25.82 42.2336 25.326C41.8379 24.2287 41.8024 23.0632 42.1463 22.2362C42.3183 21.8186 42.5967 21.4256 42.9051 21.169C43.0498 21.0489 43.047 21.0516 42.8669 21.2345C42.4384 21.6685 42.1927 22.1298 42.0535 22.763C41.9989 23.0141 42.0071 23.9831 42.0671 24.2806C42.1791 24.832 42.351 25.356 42.5585 25.7654C42.6895 26.0275 42.9269 26.4069 42.9624 26.4069C42.9761 26.4069 42.987 26.2486 42.987 26.052V25.6972H43.3691H43.7512V26.4314V27.1684L43.9641 27.3322L44.1743 27.4987L44.188 26.7672C44.2016 25.9756 44.2098 25.9319 44.3681 25.8091C44.4991 25.7054 44.6083 25.6945 45.2934 25.7027C46.0222 25.7108 46.0467 25.7163 46.1914 25.8965L46.276 26.0029L46.2897 27.5396L46.3033 29.0736L46.5626 29.2892C47.3924 29.9716 48.0311 30.7304 48.3996 31.4701C48.6834 32.0405 48.7899 32.4472 48.7489 32.8212C48.7298 32.9904 48.7298 32.9849 48.7162 32.671ZM45.5199 27.2639L45.5118 26.4751H45.2388H44.9659L44.9577 27.2721L44.9522 28.0691L45.217 28.0773C45.3644 28.0828 45.4926 28.0773 45.5063 28.0691C45.5172 28.0609 45.5227 27.6979 45.5199 27.2639Z" fill="#A4119A"></path>
  <path d="M26.651 32.2698C25.8895 31.7048 25.1034 30.9077 24.7376 30.3264C24.6885 30.2472 24.6339 30.1926 24.5902 30.1844C24.4483 30.1517 24.4456 30.1517 24.462 30.0343C24.4729 29.9442 24.4565 29.8815 24.3664 29.6877C24.2682 29.4748 24.0798 28.9725 24.1126 29.0026C24.118 29.0107 24.1863 29.139 24.2627 29.2892C24.4674 29.6849 24.4729 29.6877 24.4756 29.3219C24.4783 29.1527 24.4729 28.9807 24.4647 28.9398L24.4483 28.8634H24.1781H23.9079V29.5184V30.1735H23.5257H23.1436L23.1491 28.0882L23.1573 26.0029L23.2419 25.8964C23.3865 25.7163 23.4111 25.7108 24.1399 25.7026C24.5493 25.6972 24.8332 25.7053 24.8932 25.7217C25.0324 25.7627 25.1334 25.8527 25.1935 25.981C25.2426 26.0875 25.2453 26.2048 25.2453 28.1346V30.1735H25.0406C24.9287 30.1735 24.8359 30.1844 24.8359 30.1981C24.8359 30.2636 25.3545 30.9023 25.7939 31.3772C26.0178 31.6174 26.419 31.9995 26.883 32.409C27.044 32.5509 26.9649 32.5045 26.651 32.2698ZM24.4674 27.2721V26.4751H24.1945H23.9215L23.9133 27.253C23.9106 27.6815 23.9106 28.0418 23.9188 28.0582C23.9242 28.0745 24.0334 28.0827 24.1999 28.0773L24.4701 28.0691L24.4674 27.2721Z" fill="#A4119A"></path>
  <path d="M52.3518 30.8722C52.1499 30.3536 52.0898 30.2553 51.8442 30.0506C51.1536 29.4719 50.5477 28.8578 50.2747 28.462L50.1519 28.2846L50.1546 27.9407C50.1546 27.6405 50.1683 27.5449 50.2447 27.2392C50.3511 26.8216 50.504 26.374 50.6896 25.9427C50.8506 25.5715 50.938 25.2986 51.0253 24.8919C51.1045 24.5234 51.1127 24.6189 51.039 25.0365C50.9653 25.4405 50.9243 25.5961 50.8097 25.8854C50.4494 26.7943 50.2338 27.7469 50.2993 28.1154C50.3348 28.3092 50.4276 28.4484 50.7606 28.8251C50.9789 29.0707 51.8551 29.9278 52.068 30.1025C52.1308 30.157 52.1826 30.2499 52.2618 30.4546C52.3682 30.7302 52.4992 31.1533 52.4801 31.1697C52.4747 31.1724 52.4174 31.0414 52.3518 30.8722Z" fill="#A4119A"></path>
  <path d="M19.7318 27.9353V25.6971H20.1111H20.4933L20.6161 26.0738C20.6816 26.2785 20.8317 26.748 20.9464 27.1165C21.061 27.485 21.1647 27.7934 21.1756 27.807C21.1866 27.818 21.2548 27.6405 21.3258 27.4113C21.3995 27.182 21.5496 26.7071 21.6588 26.3577C21.7707 26.0083 21.8608 25.7162 21.8608 25.7108C21.8608 25.7026 22.0327 25.6971 22.2429 25.6971H22.625V27.9353V30.1735H22.2429H21.8608L21.8553 29.1035L21.8471 28.0309L21.7106 28.5467C21.6369 28.8306 21.5578 29.079 21.5387 29.1008C21.5114 29.1254 21.4104 29.1363 21.162 29.1363C20.7608 29.1363 20.8263 29.21 20.657 28.5604C20.5943 28.3147 20.5315 28.1018 20.5206 28.0882C20.5069 28.0718 20.496 28.5331 20.496 29.1172V30.1735H20.1139H19.7318V27.9353Z" fill="#A4119A"></path>
  <path d="M25.7093 27.9353V25.6971H26.0915H26.4736V26.6279C26.4736 27.2912 26.4818 27.5559 26.5036 27.5477C26.52 27.5423 26.6646 27.1274 26.8257 26.6252L27.1177 25.7108L27.5053 25.7026C27.7182 25.6999 27.8929 25.7026 27.8929 25.7135C27.8929 25.7272 27.3361 27.4795 27.2215 27.8207L27.1833 27.9381L27.5217 28.9944C27.7073 29.5757 27.8684 30.078 27.8765 30.1135L27.8984 30.1762L27.5081 30.168L27.1177 30.1599L26.8393 29.2673C26.6865 28.776 26.5527 28.3611 26.5418 28.3447C26.4845 28.2519 26.4736 28.3857 26.4736 29.2455V30.1735H26.0915H25.7093V27.9353Z" fill="#A4119A"></path>
  <path d="M28.1386 27.9353V25.6971H29.1894H30.2403V26.0793V26.4614H29.5715H28.9028V27.0073V27.5532H29.4351H29.9673V27.9353V28.3175H29.4351H28.9028V28.8633V29.4092H29.5715H30.2403V29.7914V30.1735H29.1894H28.1386V27.9353Z" fill="#A4119A"></path>
  <path d="M31.6869 27.9353V25.6971H32.069H32.4512V27.9353V30.1735H32.069H31.6869V27.9353Z" fill="#A4119A"></path>
  <path d="M32.8879 27.9354V25.6945L33.2727 25.7026L33.6603 25.7108L33.9278 26.5788C34.0725 27.0565 34.2008 27.455 34.2089 27.4632C34.2171 27.4741 34.2253 27.0783 34.2253 26.5897V25.6972H34.6074H34.9896V27.9354V30.1735H34.6074H34.228L34.1762 30.0043C34.1462 29.9088 34.0261 29.4939 33.9114 29.0818C33.7941 28.6696 33.6876 28.3202 33.674 28.3066C33.663 28.2902 33.6521 28.7051 33.6521 29.2264V30.1735H33.27H32.8879V27.9354Z" fill="#A4119A"></path>
  <path d="M37.8064 27.9435L37.8146 25.7108H38.1967H38.5789L38.8518 26.5979L39.1248 27.485L39.1329 26.5897L39.1384 25.6971H39.5205H39.9027V27.9353V30.1735H39.5233H39.1439L39.1002 30.0316C39.0783 29.9524 38.9555 29.5321 38.8327 29.0981L38.6061 28.3093L38.598 29.2427L38.5925 30.1735H38.1967H37.8009L37.8064 27.9435Z" fill="#A4119A"></path>
  <path d="M50.2829 24.6899C50.0045 24.2669 50.0755 23.8411 50.4849 23.4344L50.6978 23.2269L51.2164 23.0932C52.2536 22.823 52.9332 22.5991 53.2144 22.4326L53.3727 22.3398L53.2771 22.4217C53.0069 22.6565 52.0489 23.0331 51.1236 23.2733C50.7414 23.3716 50.6077 23.4535 50.4166 23.71C50.1956 24.0076 50.1601 24.3187 50.3102 24.6435C50.3511 24.7309 50.3812 24.8073 50.3757 24.8128C50.373 24.8182 50.3293 24.7636 50.2829 24.6899Z" fill="#A4119A"></path>
  <rect x="36.6819" y="25.7791" width="0.627782" height="4.33988" fill="white"></rect>
</svg>
