<?xml version="1.0" encoding="UTF-8"?>
<svg xmlns="http://www.w3.org/2000/svg" width="61" height="61" viewBox="0 0 61 61" fill="none">
  <rect width="61" height="61" fill="#A4119A"></rect>
  <path d="M43.5419 47.6042C37.1883 51.7417 28.5955 51.0227 23.0201 45.4473C16.6193 39.0465 16.6193 28.6688 23.0201 22.268C29.4209 15.8672 39.7986 15.8672 46.1994 22.268C51.7696 27.8383 52.4924 36.4202 48.3679 42.772" stroke="white" stroke-width="1.5" stroke-miterlimit="10" stroke-linecap="round" stroke-linejoin="round"></path>
  <path d="M34.6097 46.2467C27.7674 46.2467 22.2207 40.7 22.2207 33.8577C22.2207 27.0153 27.7674 21.4686 34.6097 21.4686C41.452 21.4686 46.9988 27.0153 46.9988 33.8577C46.9988 40.7 41.452 46.2467 34.6097 46.2467Z" stroke="white" stroke-width="1.5" stroke-miterlimit="10" stroke-linecap="round" stroke-linejoin="round"></path>
  <path d="M31.5236 14.0975H37.6699C38.8014 14.0975 39.7187 13.1803 39.7187 12.0488C39.7187 10.9172 38.8014 9.99998 37.6699 9.99998H31.5236C30.392 9.99998 29.4748 10.9172 29.4748 12.0488C29.4748 13.1803 30.392 14.0975 31.5236 14.0975Z" stroke="white" stroke-width="1.5" stroke-miterlimit="10" stroke-linecap="round" stroke-linejoin="round"></path>
  <path d="M37.5168 17.4675V14.0976H31.6766V17.4675" stroke="white" stroke-width="1.5" stroke-miterlimit="10" stroke-linecap="round" stroke-linejoin="round"></path>
  <path d="M36.2278 32.2395L40.6133 27.854" stroke="white" stroke-width="1.5" stroke-miterlimit="10" stroke-linecap="round" stroke-linejoin="round"></path>
  <path d="M32.8107 33.8577C32.8107 34.8513 33.6162 35.6567 34.6097 35.6567C35.6033 35.6567 36.4087 34.8513 36.4087 33.8577C36.4087 32.8642 35.6033 32.0587 34.6097 32.0587C33.6162 32.0587 32.8107 32.8642 32.8107 33.8577Z" stroke="white" stroke-width="1.5" stroke-miterlimit="10" stroke-linecap="round" stroke-linejoin="round"></path>
  <path d="M43.737 33.8682H42.9462" stroke="white" stroke-width="1.5" stroke-miterlimit="10" stroke-linecap="round" stroke-linejoin="round"></path>
  <path d="M25.4826 33.8473H26.2734" stroke="white" stroke-width="1.5" stroke-miterlimit="10" stroke-linecap="round" stroke-linejoin="round"></path>
  <path d="M34.6202 24.7305V25.5214" stroke="white" stroke-width="1.5" stroke-miterlimit="10" stroke-linecap="round" stroke-linejoin="round"></path>
  <path d="M34.5993 42.985V42.1942" stroke="white" stroke-width="1.5" stroke-miterlimit="10" stroke-linecap="round" stroke-linejoin="round"></path>
  <path d="M33.2597 32.5076L30.9421 30.19" stroke="white" stroke-width="1.5" stroke-miterlimit="10" stroke-linecap="round" stroke-linejoin="round"></path>
  <path d="M35.8818 32.5856L40.4893 27.9782" stroke="white" stroke-width="1.5" stroke-miterlimit="10" stroke-linecap="round" stroke-linejoin="round"></path>
  <path d="M18.9673 39.1251H12.4146" stroke="white" stroke-width="1.5" stroke-miterlimit="10" stroke-linecap="round" stroke-linejoin="round"></path>
  <path d="M18.2195 34.1366H13.6097" stroke="white" stroke-width="1.5" stroke-miterlimit="10" stroke-linecap="round" stroke-linejoin="round"></path>
  <path d="M18.7397 29.1482H9" stroke="white" stroke-width="1.5" stroke-miterlimit="10" stroke-linecap="round" stroke-linejoin="round"></path>
  <path d="M20.9024 24.1597H14.8191" stroke="white" stroke-width="1.5" stroke-miterlimit="10" stroke-linecap="round" stroke-linejoin="round"></path>
</svg>
