<?xml version="1.0" encoding="UTF-8"?>
<svg xmlns="http://www.w3.org/2000/svg" width="159" height="69" viewBox="0 0 159 69" fill="none">
  <rect width="159" height="69" fill="white"></rect>
  <mask id="mask0_96_28" style="mask-type:luminance" maskUnits="userSpaceOnUse" x="17" y="18" width="125" height="33">
    <path d="M141.321 18H17V50.56H141.321V18Z" fill="white"></path>
  </mask>
  <g mask="url(#mask0_96_28)">
    <path d="M113.787 36.8009C113.655 36.09 113.458 35.3927 113.199 34.7166C112.686 33.3664 111.899 32.1359 110.891 31.1006C109.846 30.0343 108.6 29.1844 107.225 28.601C105.683 27.9732 104.032 27.6661 102.367 27.6951C100.686 27.6661 99.0152 27.9752 97.4563 28.601C96.0578 29.1747 94.7887 30.0246 93.7263 31.1006C92.7025 32.1514 91.9048 33.3993 91.3813 34.7707C90.8308 36.1731 90.5507 37.6682 90.5526 39.1749C90.5468 40.6507 90.8288 42.1149 91.3813 43.4883C91.926 44.8559 92.745 46.098 93.7862 47.1353C94.8351 48.1803 96.0849 49.0032 97.4602 49.5537C98.9997 50.168 100.644 50.4751 102.301 50.4538C104.557 50.5041 106.782 49.9381 108.731 48.8235C110.441 47.8635 111.83 46.4225 112.728 44.6801L113 44.1219L107.874 42.7195L107.659 42.9957C106.939 43.9229 105.983 44.6396 104.889 45.0722C103.792 45.5088 102.598 45.646 101.432 45.4721C100.267 45.2983 99.1678 44.8192 98.2502 44.0832C97.3385 43.3511 96.6393 42.3872 96.2297 41.292H113.763L113.86 40.8844C113.926 40.5985 113.964 40.3088 113.972 40.0171V38.9933C113.972 38.2651 113.906 37.5369 113.773 36.8202L113.787 36.8009ZM102.407 32.5667C103.634 32.5706 104.837 32.9105 105.886 33.5499C106.927 34.1835 107.771 35.0972 108.322 36.1828H96.4944C97.0449 35.0952 97.889 34.1835 98.9302 33.548C99.9772 32.9105 101.181 32.5706 102.407 32.5667ZM63.7316 36.8009C63.5983 36.09 63.4012 35.3927 63.1424 34.7166C62.6286 33.3664 61.8424 32.1359 60.8341 31.1006C59.7871 30.0343 58.5412 29.1863 57.1659 28.601C55.6263 27.9674 53.969 27.6545 52.302 27.6796C50.6214 27.6564 48.9544 27.9713 47.3975 28.601C45.999 29.1747 44.7299 30.0246 43.6674 31.1006C42.6437 32.1514 41.844 33.3993 41.3186 34.7707C40.7777 36.175 40.5034 37.6682 40.5092 39.1749C40.5073 40.6526 40.7873 42.1168 41.3379 43.4883C41.8845 44.854 42.7036 46.096 43.7447 47.1333C44.7936 48.1784 46.0434 49.0012 47.4168 49.5537C48.9525 50.168 50.5982 50.4751 52.2556 50.4558C54.5137 50.506 56.739 49.94 58.6919 48.8255C60.3898 47.8577 61.7651 46.4109 62.6479 44.6666L62.9261 44.1084L57.7994 42.7214L57.5831 42.9977C56.8607 43.9248 55.9045 44.6415 54.8131 45.0742C53.7159 45.5088 52.5222 45.6479 51.3535 45.4721C50.1887 45.2983 49.0896 44.8192 48.1701 44.0832C47.2584 43.3511 46.5591 42.3872 46.1496 41.292H63.6833L63.7818 40.8844C63.8552 40.5889 63.8938 40.2837 63.8977 39.9804V38.9566C63.8996 38.2284 63.8339 37.5002 63.7026 36.7835L63.7316 36.8009ZM46.422 36.1847C46.9706 35.0952 47.8128 34.1796 48.8539 33.5441C49.9028 32.9047 51.1082 32.5648 52.3367 32.5667C53.5672 32.5667 54.7745 32.9047 55.8195 33.5441C56.8607 34.1796 57.7029 35.0952 58.2514 36.1847H46.422ZM32.2784 32.5937L27.7738 30.7432C25.4075 29.7967 23.1784 28.9004 23.1784 26.6037C23.1784 24.4634 25.1429 23.0765 28.1814 23.0765C29.0197 23.0745 29.8561 23.1808 30.6674 23.3894L30.7331 23.4261H30.7698C30.8432 23.4512 30.9147 23.4763 30.9803 23.5034H31.0093L31.0711 23.5227L31.245 23.6L31.328 23.6367L31.4555 23.6946C31.5791 23.7526 31.7008 23.8124 31.7994 23.8704L31.9983 23.9805L32.1258 24.0616L32.317 24.1795L32.4503 24.2741C32.9468 24.6199 33.391 25.0352 33.7716 25.5046L34.0111 25.7866L34.3433 25.6765L39.13 24.417L38.8402 23.8511C37.942 22.1474 36.559 20.7469 34.8668 19.8274C33.4625 19.0432 31.9075 18.5525 30.3004 18.3845C29.6031 18.2551 28.8961 18.1875 28.1872 18.1836C25.2568 18.1836 22.5757 19.0393 20.6286 20.5982C19.6705 21.3341 18.892 22.2806 18.3531 23.3624C17.818 24.4402 17.5379 25.6243 17.536 26.8278C17.536 30.5829 19.7613 33.3143 24.3393 35.1686L28.8246 37.0443C31.5598 38.1743 33.5359 38.9933 33.5359 41.5296C33.5359 44.0659 31.3493 45.5455 27.8298 45.5455H27.0494C26.4004 45.4876 25.761 45.3388 25.1525 45.1051L25.0656 45.0722L24.9864 45.0355L24.8705 44.9621L24.7952 44.9293H24.7662L24.6677 44.8791C24.546 44.8231 24.4262 44.7613 24.3103 44.6956L24.2446 44.6589L24.1616 44.6144H24.1326L23.9916 44.5005L23.8042 44.3826L23.6883 44.3015C23.4894 44.1586 23.2962 44.006 23.1127 43.8456C22.8403 43.5945 22.5892 43.3222 22.3632 43.0305L22.1314 42.7485L21.7914 42.8586L16.9971 44.1335L17.283 44.6994C17.4761 45.0877 17.7002 45.4624 17.9494 45.8179L18.0247 45.9434L18.1445 46.0825C18.9925 47.1778 20.051 48.0914 21.2583 48.7733C22.2898 49.3683 23.4082 49.7971 24.573 50.0424L24.631 50.0656H24.6851C25.6895 50.3148 26.721 50.4345 27.7564 50.4249C31.0962 50.4249 33.9725 49.5112 36.0451 47.7862C37.0303 46.9981 37.8242 45.9975 38.3728 44.8636C38.9175 43.7336 39.2015 42.4954 39.2015 41.2398C39.2015 36.1152 35.7013 33.9981 32.2765 32.6053V32.5937H32.2784Z" fill="#333333"></path>
    <path d="M132.437 50.5503H126.511L121.572 43.2004L116.599 50.5503H110.644L118.63 39.3255L110.391 27.7916H116.343L132.437 50.5503ZM83.1142 18V29.4373C81.2618 28.203 79.0848 27.5482 76.8614 27.5578C70.572 27.5578 65.4492 32.7154 65.4492 39.0589C65.4492 45.4025 70.57 50.56 76.8614 50.56C79.0867 50.5677 81.2637 49.9148 83.1142 48.6805V50.4673H88.7952V18H83.1142ZM76.8595 32.7308C78.1363 32.696 79.3958 33.036 80.4814 33.7102C81.5573 34.3785 82.4111 35.3559 82.9288 36.513C83.4426 37.6643 83.5952 38.943 83.3673 40.1831C83.1374 41.4252 82.5405 42.5707 81.65 43.4689C80.7537 44.3748 79.6083 44.993 78.3604 45.2499C77.1087 45.5087 75.8068 45.3947 74.6207 44.9196C73.4405 44.4502 72.4244 43.6389 71.7058 42.5919C70.9931 41.5527 70.6106 40.3203 70.6087 39.0589C70.5894 37.3996 71.2365 35.8021 72.4051 34.6219C73.5854 33.4339 75.1848 32.754 76.8595 32.7308Z" fill="#333333"></path>
    <path d="M130.837 18.3303C128.887 18.3284 126.977 18.8635 125.314 19.8776C123.66 20.882 122.322 22.3308 121.449 24.0558C119.677 27.5598 120.083 31.7727 122.488 34.875L127.481 27.4902H133.054L125.801 37.6836C128.648 39.2212 132.042 39.3777 135.019 38.1105C136.483 37.4885 137.785 36.542 138.828 35.3405C139.863 34.1467 140.609 32.7328 141.009 31.2029C141.405 29.6788 141.441 28.0852 141.117 26.5437C140.788 24.9984 140.108 23.5516 139.129 22.3134C138.142 21.0675 136.885 20.063 135.451 19.3754C134.012 18.6858 132.434 18.3284 130.837 18.3303Z" fill="#D50C47"></path>
    <path d="M32.2784 32.5918L27.7738 30.7413C25.4075 29.7967 23.1784 28.8985 23.1784 26.6037C23.1784 24.4634 25.1429 23.0765 28.1814 23.0765C29.0197 23.0745 29.8561 23.1808 30.6674 23.3894L30.7331 23.4261H30.7698C30.8432 23.4512 30.9147 23.4763 30.9803 23.5034H31.0093L31.0711 23.5227L31.245 23.5999L31.328 23.6366L31.4555 23.6946C31.5791 23.7525 31.7008 23.8124 31.7994 23.8704L31.9983 23.9805L32.1258 24.0616L32.317 24.1794L32.4503 24.2741C32.9468 24.6198 33.391 25.0352 33.7716 25.5046L34.0111 25.7866L34.3433 25.6765L39.13 24.417L38.8402 23.8511C37.942 22.1454 36.559 20.7449 34.8668 19.8255C33.4625 19.0412 31.9075 18.5506 30.3004 18.3825C29.6031 18.2531 28.8961 18.1855 28.1872 18.1816C25.2568 18.1816 22.5757 19.0374 20.6286 20.5943C19.6705 21.3302 18.892 22.2768 18.3531 23.3585C17.818 24.4363 17.5379 25.6204 17.536 26.8239C17.536 30.579 19.7613 33.3104 24.3393 35.1667L28.8246 37.0423C31.5598 38.1723 33.5359 38.9914 33.5359 41.5276C33.5359 44.0639 31.3493 45.5436 27.8298 45.5436H27.0494C26.4004 45.4856 25.761 45.3369 25.1525 45.1031L25.0656 45.0703L24.9864 45.0336L24.8705 44.9602L24.7952 44.9274H24.7662L24.6677 44.8771C24.546 44.8211 24.4262 44.7593 24.3103 44.6956L24.2446 44.6589L24.1616 44.6144H24.1326L23.9916 44.5005L23.8042 44.3826L23.6883 44.3015C23.4894 44.1586 23.2962 44.006 23.1127 43.8456C22.8403 43.5945 22.5892 43.3221 22.3632 43.0305L22.1314 42.7484L21.7914 42.8585L16.9971 44.1354L17.283 44.7014C17.4761 45.0896 17.7002 45.4624 17.9494 45.8178L18.0247 45.9434L18.1445 46.0825C18.9925 47.1777 20.051 48.0933 21.2583 48.7733C22.2898 49.3682 23.4082 49.7951 24.573 50.0404L24.631 50.0656H24.6851C25.6876 50.3147 26.721 50.4345 27.7564 50.4248C31.0962 50.4248 33.9725 49.5112 36.0451 47.7862C37.0303 46.9981 37.8242 45.9975 38.3728 44.8636C38.9175 43.7336 39.2015 42.4954 39.2015 41.2398C39.2015 36.1151 35.7013 33.998 32.2765 32.6053V32.5918H32.2784Z" fill="#333333"></path>
    <path d="M32.2784 32.5918L27.7738 30.7413C25.4075 29.7967 23.1784 28.8985 23.1784 26.6037C23.1784 24.4634 25.1429 23.0765 28.1814 23.0765C29.0197 23.0745 29.8561 23.1808 30.6674 23.3894L30.7331 23.4261H30.7698C30.8432 23.4512 30.9147 23.4763 30.9803 23.5034H31.0093L31.0711 23.5227L31.245 23.5999L31.328 23.6366L31.4555 23.6946C31.5791 23.7525 31.7008 23.8124 31.7994 23.8704L31.9983 23.9805L32.1258 24.0616L32.317 24.1794L32.4503 24.2741C32.9468 24.6198 33.391 25.0352 33.7716 25.5046L34.0111 25.7866L34.3433 25.6765L39.13 24.417L38.8402 23.8511C37.942 22.1454 36.559 20.7449 34.8668 19.8255C33.4625 19.0412 31.9075 18.5506 30.3004 18.3825C29.6031 18.2531 28.8961 18.1855 28.1872 18.1816C25.2568 18.1816 22.5757 19.0374 20.6286 20.5943C19.6705 21.3302 18.892 22.2768 18.3531 23.3585C17.818 24.4363 17.5379 25.6204 17.536 26.8239C17.536 30.579 19.7613 33.3104 24.3393 35.1667L28.8246 37.0423C31.5598 38.1723 33.5359 38.9914 33.5359 41.5276C33.5359 44.0639 31.3493 45.5436 27.8298 45.5436H27.0494C26.4004 45.4856 25.761 45.3369 25.1525 45.1031L25.0656 45.0703L24.9864 45.0336L24.8705 44.9602L24.7952 44.9274H24.7662L24.6677 44.8771C24.546 44.8211 24.4262 44.7593 24.3103 44.6956L24.2446 44.6589L24.1616 44.6144H24.1326L23.9916 44.5005L23.8042 44.3826L23.6883 44.3015C23.4894 44.1586 23.2962 44.006 23.1127 43.8456C22.8403 43.5945 22.5892 43.3221 22.3632 43.0305L22.1314 42.7484L21.7914 42.8585L16.9971 44.1354L17.283 44.7014C17.4761 45.0896 17.7002 45.4624 17.9494 45.8178L18.0247 45.9434L18.1445 46.0825C18.9925 47.1777 20.051 48.0933 21.2583 48.7733C22.2898 49.3682 23.4082 49.7951 24.573 50.0404L24.631 50.0656H24.6851C25.6876 50.3147 26.721 50.4345 27.7564 50.4248C31.0962 50.4248 33.9725 49.5112 36.0451 47.7862C37.0303 46.9981 37.8242 45.9975 38.3728 44.8636C38.9175 43.7336 39.2015 42.4954 39.2015 41.2398C39.2015 36.1151 35.7013 33.998 32.2765 32.6053V32.5918H32.2784Z" fill="#333333"></path>
  </g>
</svg>
